<!DOCTYPE svg PUBLIC "-//W3C//DTD SVG 20010904//EN" "http://www.w3.org/TR/2001/REC-SVG-20010904/DTD/svg10.dtd">
<svg version="1.0" xmlns="http://www.w3.org/2000/svg" width="1024px" height="1009px" viewBox="0 0 10240 10090" preserveAspectRatio="xMidYMid meet">
<g id="layer101" fill="#040304" stroke="none">
 <path d="M2390 10080 c0 -5 -16 -24 -35 -43 -19 -19 -35 -39 -35 -46 0 -6 -4 -11 -10 -11 -5 0 -19 -17 -31 -37 -13 -21 -45 -56 -73 -79 -28 -22 -56 -51 -63 -65 -9 -16 -19 -23 -34 -21 -20 3 -20 1 -13 -55 10 -70 8 -770 -2 -830 -4 -30 -3 -43 5 -43 13 0 15 -36 2 -44 -4 -3 -17 4 -27 16 -14 15 -16 22 -6 25 20 7 14 33 -8 33 -16 0 -19 5 -13 30 4 24 2 30 -11 30 -12 0 -15 6 -10 24 7 29 -14 46 -28 22 -12 -22 -28 -20 -28 4 0 16 -7 20 -32 20 -58 0 -79 -11 -85 -41 -3 -16 -9 -29 -14 -29 -5 0 -9 -13 -9 -29 0 -23 5 -30 23 -33 17 -2 23 -11 25 -37 2 -19 -2 -45 -9 -58 -10 -18 -10 -26 -1 -35 19 -19 14 -48 -8 -48 -11 0 -20 -4 -20 -9 0 -5 -10 -11 -22 -13 -19 -2 -22 -8 -20 -32 3 -24 0 -27 -15 -21 -33 13 -48 11 -45 -7 3 -21 -19 -24 -50 -7 -27 15 -47 -3 -28 -26 10 -13 9 -15 -7 -15 -10 0 -24 5 -31 12 -19 19 -40 -6 -22 -27 10 -13 9 -15 -8 -15 -12 0 -23 -9 -27 -20 -5 -16 -12 -19 -33 -13 -15 3 -30 10 -33 15 -4 6 -17 8 -30 6 -28 -4 -38 -37 -15 -50 27 -15 18 -28 -19 -28 l-35 0 6 40 c5 33 4 40 -10 40 -9 0 -16 7 -16 16 0 12 -7 14 -27 10 -22 -5 -34 0 -55 23 -16 16 -28 34 -28 40 0 6 -7 11 -15 11 -8 0 -19 9 -25 20 -16 30 -68 27 -79 -4 -5 -13 -17 -26 -25 -29 -9 -4 -16 -18 -16 -32 0 -14 -4 -25 -10 -25 -5 0 -10 -13 -10 -30 0 -20 5 -30 15 -30 10 0 15 -10 15 -30 0 -23 5 -30 19 -30 15 0 19 -6 18 -26 -1 -15 4 -29 11 -31 6 -3 12 2 12 11 0 9 7 16 15 16 12 0 13 -4 5 -19 -14 -27 -13 -30 15 -41 35 -13 34 -48 -2 -52 -23 -2 -28 -7 -25 -28 2 -19 0 -22 -10 -12 -17 17 -48 15 -48 -3 0 -8 -4 -15 -10 -15 -10 0 -110 -97 -110 -107 0 -3 7 -11 16 -18 16 -11 16 -12 0 -18 -10 -4 -16 -1 -16 8 0 15 -21 21 -33 9 -10 -10 4 -34 22 -35 14 0 14 -1 0 -7 -35 -15 -107 -84 -102 -98 3 -10 -3 -14 -20 -14 -13 0 -39 -3 -56 -6 -24 -5 -31 -3 -31 10 0 9 5 16 12 16 9 0 9 3 0 12 -8 8 -15 8 -27 -2 -20 -16 -32 -5 -16 14 17 20 4 39 -22 32 -13 -3 -25 1 -33 12 -10 14 -15 15 -38 3 -17 -9 -42 -12 -76 -8 l-50 6 0 -30 c0 -17 -7 -37 -15 -46 -21 -21 -15 -47 13 -51 12 -2 22 -8 22 -13 0 -5 16 -26 35 -48 19 -21 35 -48 35 -61 0 -13 8 -24 20 -27 15 -4 18 -11 14 -29 -4 -14 -1 -31 6 -39 10 -12 9 -15 -4 -15 -9 0 -19 -7 -22 -15 -4 -8 -15 -15 -25 -15 -10 0 -19 -7 -19 -15 0 -8 -7 -15 -15 -15 -10 0 -15 -10 -15 -29 0 -17 -5 -33 -10 -36 -13 -8 -13 -55 1 -55 5 0 7 -5 3 -11 -4 -8 -9 -8 -17 0 -19 19 -37 12 -37 -13 0 -13 7 -29 15 -36 17 -14 11 -30 -11 -30 -8 0 -27 -11 -41 -24 -20 -19 -24 -28 -16 -38 9 -10 5 -13 -18 -12 -55 3 -59 4 -59 25 0 19 -4 20 -33 15 -76 -16 -107 -18 -107 -7 0 7 6 11 13 10 30 -4 47 2 47 16 0 10 -10 15 -34 15 -21 0 -36 -6 -40 -15 -3 -8 -12 -15 -21 -15 -11 0 -15 -11 -15 -39 0 -44 -15 -63 -23 -30 -8 29 -31 19 -35 -15 -3 -20 2 -29 16 -33 11 -2 25 -16 32 -29 14 -25 34 -31 45 -14 11 18 25 10 25 -15 0 -25 14 -33 25 -15 11 18 35 11 35 -10 0 -11 7 -20 15 -20 8 0 15 -9 15 -20 0 -15 7 -20 25 -20 30 0 33 -20 4 -27 -19 -5 -21 -11 -16 -59 5 -52 -4 -72 -17 -37 -6 15 -8 15 -23 0 -13 -13 -14 -21 -5 -44 17 -45 25 -93 14 -93 -5 0 -12 7 -16 15 -3 8 -10 15 -15 15 -15 0 -24 -39 -12 -53 5 -7 13 -43 17 -80 l7 -68 -25 6 c-17 4 -29 0 -42 -14 -17 -19 -17 -21 -2 -27 42 -16 6 -24 -109 -24 l-125 0 0 -65 c0 -37 4 -65 10 -65 6 0 10 -7 10 -15 0 -8 -6 -15 -12 -15 -9 0 -8 -3 2 -10 9 -6 18 -6 24 0 12 12 56 13 56 2 0 -4 -5 -13 -12 -20 -20 -20 1 -27 30 -10 30 18 44 14 55 -15 5 -13 13 -17 28 -12 l22 7 -7 -173 c-5 -96 -9 -210 -9 -254 l-2 -80 -52 -1 c-34 0 -60 -7 -71 -17 -10 -10 -31 -17 -45 -17 -27 0 -27 0 -27 -76 l0 -77 81 7 c64 6 85 4 103 -8 28 -18 62 -89 65 -131 0 -16 5 -41 10 -55 5 -14 12 -54 14 -90 3 -35 10 -66 16 -68 31 -10 -10 -142 -44 -142 -7 0 -15 -7 -19 -15 -3 -8 -15 -15 -26 -15 -11 0 -20 -5 -20 -10 0 -6 -10 -15 -22 -21 -42 -19 -72 -38 -99 -63 -15 -14 -34 -26 -43 -26 -11 0 -16 -9 -16 -30 l0 -30 78 0 c48 1 86 6 102 15 14 8 51 14 83 15 56 0 58 -1 68 -30 6 -16 14 -30 19 -30 4 0 10 -15 13 -34 3 -19 17 -52 31 -75 14 -22 26 -50 26 -61 0 -11 7 -23 15 -26 10 -4 15 -20 15 -45 0 -25 6 -41 16 -47 36 -20 2 -32 -94 -32 -69 -1 -103 -5 -116 -15 -11 -8 -28 -15 -37 -15 -23 0 -119 -90 -119 -111 0 -9 -7 -22 -15 -29 -8 -7 -15 -21 -15 -32 0 -11 -7 -26 -15 -34 -8 -9 -15 -24 -15 -34 0 -10 -9 -20 -20 -23 -20 -5 -20 -14 -20 -402 0 -261 3 -394 10 -390 5 3 10 -1 10 -9 0 -9 5 -16 10 -16 6 0 10 -9 10 -19 0 -11 7 -26 15 -35 8 -8 15 -23 15 -34 0 -11 7 -22 15 -26 8 -3 15 -15 15 -27 0 -24 37 -89 51 -89 5 0 9 -12 9 -27 1 -18 11 -37 30 -53 17 -13 30 -34 30 -46 0 -12 7 -24 15 -28 8 -3 15 -13 15 -23 0 -28 92 -104 170 -141 25 -12 58 -35 74 -52 52 -56 94 -70 204 -70 76 0 102 -4 112 -15 17 -21 157 -21 196 0 16 8 43 15 59 15 17 0 39 7 49 15 11 8 33 15 49 15 15 0 35 7 43 15 9 8 30 15 48 15 19 0 40 7 47 17 22 26 117 93 132 93 8 0 20 7 27 15 9 11 32 15 80 15 48 0 71 -4 80 -15 7 -8 22 -15 34 -15 11 0 30 -7 40 -15 25 -19 93 -19 130 0 15 8 41 15 56 15 15 0 33 7 40 15 7 8 27 15 45 15 18 0 38 -7 45 -15 7 -8 19 -15 26 -15 8 0 14 -4 14 -10 0 -5 12 -13 28 -16 15 -4 41 -17 59 -30 23 -18 45 -24 82 -24 27 0 53 5 56 10 3 6 40 10 81 10 60 0 74 -3 74 -15 0 -9 12 -27 26 -40 31 -29 97 -34 128 -10 16 12 59 15 213 15 l193 0 0 -59 c0 -43 4 -60 15 -65 11 -4 15 -22 15 -71 l0 -65 -233 0 -233 0 -60 -62 c-120 -125 -221 -234 -273 -296 -43 -50 -56 -60 -67 -51 -12 10 -14 -158 -14 -1115 l0 -1126 3895 0 c3715 0 3895 1 3895 18 0 9 20 37 45 61 25 24 45 47 45 52 0 5 4 9 9 9 4 0 54 46 110 102 l101 101 0 1579 0 1578 -1430 0 -1429 0 -59 -52 c-32 -29 -123 -111 -201 -183 l-142 -130 3 -273 3 -272 -187 0 -188 0 0 550 0 550 873 2 c479 2 775 4 657 5 l-214 3 217 218 217 217 -2 1095 -3 1095 -872 3 -873 2 0 565 0 565 200 -2 201 -3 2 -480 2 -480 1447 -3 1446 -2 41 47 c23 27 41 53 41 59 0 12 49 66 102 111 20 17 58 59 83 92 26 34 51 61 56 61 5 0 9 618 9 1590 l0 1590 -3925 0 c-2478 0 -3925 -4 -3925 -10z m-1680 -2304 c0 -8 -4 -17 -9 -21 -12 -7 -24 12 -16 25 9 15 25 12 25 -4z"/>
 <path d="M52 5991 c-8 -4 -12 -19 -10 -32 2 -19 8 -23 28 -21 34 4 47 19 34 40 -13 20 -34 25 -52 13z"/>
 </g>
<g id="layer102" fill="#5e464c" stroke="none">
 <path d="M2430 10079 c0 -6 -6 -9 -14 -6 -9 4 -30 -13 -55 -41 -23 -26 -53 -58 -66 -72 -27 -27 -33 -50 -12 -50 16 0 177 152 177 168 0 6 -7 12 -15 12 -8 0 -15 -5 -15 -11z"/>
 <path d="M2234 9887 c-3 -9 -10 -17 -15 -17 -15 0 -69 -59 -79 -86 -9 -23 -12 -25 -27 -13 -12 10 -15 10 -9 2 4 -7 3 -13 -2 -13 -4 0 -5 -23 -2 -52 9 -72 6 -801 -4 -816 -4 -7 -1 -23 8 -36 13 -20 13 -26 1 -42 -12 -18 -14 -17 -33 6 -11 14 -16 27 -11 28 17 6 9 22 -11 22 -17 0 -18 3 -10 26 9 22 7 27 -10 31 -16 4 -19 11 -15 34 6 35 -8 38 -23 4 -14 -31 1 -69 58 -145 45 -60 67 -77 81 -63 6 6 11 217 13 507 l3 497 56 57 c42 43 54 61 47 72 -8 12 -10 12 -16 -3z"/>
 <path d="M2318 9575 c-5 -5 -8 -180 -8 -390 0 -325 2 -384 15 -395 11 -10 40 -9 139 4 68 9 131 18 139 22 19 7 31 36 61 158 15 61 33 107 45 120 l21 20 21 -20 c22 -23 38 -78 39 -134 0 -55 19 -109 44 -125 23 -15 247 -65 294 -65 15 0 46 3 69 7 39 8 47 15 121 118 62 88 83 110 103 110 41 0 46 -40 16 -138 -35 -111 -35 -151 -1 -182 15 -14 38 -25 51 -25 13 0 38 -7 54 -16 44 -22 178 -56 198 -49 10 3 48 37 86 76 38 39 82 77 98 86 34 17 72 11 81 -13 8 -21 -16 -96 -59 -189 -44 -95 -50 -128 -31 -169 9 -19 22 -36 30 -39 8 -3 23 -24 33 -47 17 -38 48 -75 323 -380 138 -153 220 -258 220 -281 0 -9 7 -23 16 -30 9 -7 34 -39 55 -71 24 -35 54 -65 77 -77 20 -10 46 -28 56 -40 11 -12 23 -21 29 -21 5 0 25 -13 44 -30 18 -16 41 -30 51 -30 9 0 42 -12 72 -26 119 -58 136 -64 161 -64 33 0 128 28 154 46 46 33 215 0 317 -62 136 -83 192 -174 202 -329 4 -55 11 -120 17 -145 5 -25 18 -88 29 -140 11 -52 31 -144 46 -205 83 -348 99 -535 64 -785 -11 -79 -50 -249 -69 -295 -33 -84 -132 -266 -186 -340 -36 -49 -79 -113 -96 -142 -60 -104 -206 -207 -331 -235 -70 -15 -89 -34 -101 -105 -16 -96 -13 -124 27 -222 49 -120 56 -187 27 -259 -12 -29 -21 -61 -21 -71 0 -11 -23 -47 -52 -81 -61 -73 -64 -98 -28 -181 37 -85 39 -230 7 -379 -30 -135 -46 -173 -109 -262 -106 -148 -282 -257 -473 -293 -101 -19 -166 -19 -283 0 -125 20 -199 46 -307 108 -124 70 -234 123 -281 135 -21 6 -77 14 -124 17 -80 6 -90 5 -164 -25 -51 -21 -89 -30 -106 -26 -15 2 -32 0 -39 -7 -8 -8 -11 -129 -11 -433 0 -260 -4 -425 -10 -429 -5 -3 -196 -6 -425 -7 -228 -1 -420 -5 -425 -8 -18 -11 -10 -1884 7 -1901 15 -15 496 -18 3967 -19 2756 -1 3340 1 3347 12 14 22 19 2811 6 2825 -14 13 -2478 15 -2494 1 -12 -10 -13 -83 -8 -454 3 -255 2 -445 -3 -448 -5 -3 -249 -8 -543 -11 -444 -6 -537 -4 -546 7 -9 10 -11 258 -10 913 l2 900 860 3 c472 1 862 5 866 10 11 10 23 1868 13 1875 -5 3 -391 8 -859 12 -467 3 -858 9 -867 11 -17 5 -18 57 -18 918 l0 913 263 6 c446 12 835 9 844 -5 4 -7 9 -211 10 -453 1 -242 2 -452 2 -467 l1 -28 1240 0 c1215 0 1239 0 1250 19 16 31 14 2820 -3 2826 -33 10 -7329 30 -7339 20z"/>
 <path d="M1892 8997 c6 -18 78 -22 78 -4 0 9 -13 14 -41 15 -28 1 -39 -2 -37 -11z"/>
 <path d="M1865 8991 c-3 -6 -3 -11 2 -11 4 0 4 -4 -2 -8 -15 -11 -35 -72 -24 -72 6 0 7 -4 4 -10 -3 -5 1 -10 9 -10 8 0 19 -8 25 -17 7 -13 8 5 4 57 -5 80 -7 87 -18 71z"/>
 <path d="M1877 8793 c-11 -10 -8 -51 4 -55 15 -5 0 -38 -18 -38 -8 0 -11 -4 -8 -10 3 -5 -7 -12 -22 -16 -42 -10 -44 -13 -26 -38 l18 -24 42 30 c41 27 43 32 43 78 0 67 -12 94 -33 73z"/>
 <path d="M3262 8713 c-47 -61 -56 -82 -43 -109 11 -26 59 -34 65 -11 2 6 13 41 25 76 11 35 18 68 15 73 -11 17 -33 7 -62 -29z"/>
 <path d="M1966 8721 c-4 -5 -3 -51 0 -103 6 -104 24 -138 75 -138 59 0 59 37 2 158 -33 68 -65 103 -77 83z"/>
 <path d="M2662 8677 c-12 -13 -22 -28 -22 -34 0 -20 42 -63 61 -63 18 0 20 6 17 57 -3 66 -20 78 -56 40z"/>
 <path d="M2887 8680 c-28 -18 -47 -65 -47 -118 0 -52 -18 -80 -68 -106 -73 -38 -147 -28 -198 25 -27 29 -29 35 -27 105 2 63 0 75 -17 84 -28 15 -130 12 -186 -5 -27 -8 -58 -15 -70 -15 -11 0 -31 -11 -44 -25 -23 -24 -23 -25 -6 -83 21 -75 20 -110 -3 -145 -36 -55 -103 -87 -185 -87 -44 0 -53 4 -92 44 -39 38 -44 48 -44 89 0 74 -14 80 -107 47 -43 -16 -94 -36 -113 -45 -60 -30 -140 -88 -140 -102 0 -7 16 -37 35 -67 48 -71 54 -112 25 -171 -25 -53 -69 -91 -126 -111 -57 -20 -66 -18 -112 24 -34 32 -42 46 -42 75 0 31 -20 67 -37 67 -8 0 -127 -107 -205 -183 -81 -80 -86 -108 -29 -142 68 -40 91 -70 91 -117 0 -63 -18 -119 -48 -151 -32 -34 -73 -57 -101 -57 -28 0 -99 65 -116 107 -16 39 -48 44 -87 14 -30 -24 -166 -251 -174 -291 -10 -47 8 -60 81 -60 79 0 117 -27 134 -94 35 -140 -14 -226 -128 -226 -50 0 -61 4 -83 28 -14 15 -33 42 -42 60 -26 50 -52 41 -92 -32 -27 -49 -85 -297 -79 -333 6 -32 7 -33 56 -33 52 0 112 -24 140 -56 9 -11 24 -41 34 -67 17 -46 17 -51 2 -80 -9 -18 -22 -53 -28 -79 -9 -39 -15 -48 -33 -48 -12 0 -31 -7 -42 -15 -29 -19 -87 -9 -115 21 -29 31 -63 31 -77 -1 -6 -13 -12 -82 -13 -153 -1 -166 10 -192 82 -192 26 0 54 -11 90 -35 29 -20 59 -34 68 -33 12 2 21 33 38 128 12 69 22 144 22 168 1 23 8 59 16 79 9 20 13 45 9 55 -3 11 4 34 16 56 12 20 38 84 57 142 66 201 174 449 262 604 40 70 212 319 266 386 29 36 122 135 207 220 223 226 443 379 668 465 52 20 118 45 146 56 85 34 194 59 290 69 50 5 111 16 135 25 32 12 93 18 219 21 96 2 181 6 188 9 19 7 14 34 -14 71 -27 35 -29 68 -8 140 4 14 -3 30 -19 50 -22 25 -32 29 -93 31 -38 2 -77 -1 -87 -7z"/>
 <path d="M1158 8644 c-6 -13 -17 -24 -25 -24 -7 0 -13 -3 -14 -7 0 -5 -3 -17 -6 -28 -15 -61 -15 -85 1 -85 12 0 15 -6 10 -24 -6 -27 10 -43 29 -28 9 8 12 2 11 -24 -2 -37 1 -40 20 -21 23 23 23 41 -1 76 -57 83 -49 151 15 136 30 -6 55 -30 136 -128 42 -52 66 -60 66 -23 0 13 3 32 7 42 5 14 2 16 -16 11 -16 -4 -21 -1 -19 11 2 12 -5 17 -25 18 -18 1 -36 11 -50 29 -72 92 -118 115 -139 69z"/>
 <path d="M1746 8614 c-5 -12 -14 -14 -45 -9 -37 6 -39 5 -34 -16 6 -20 4 -22 -29 -16 -32 5 -35 3 -31 -14 5 -17 -5 -24 -29 -20 -11 1 -10 -11 2 -29 7 -11 12 -12 18 -3 7 12 85 53 134 72 31 12 58 51 34 51 -7 0 -17 -7 -20 -16z"/>
 <path d="M3419 8574 c-18 -5 -59 -73 -59 -98 0 -9 -16 -26 -35 -37 -24 -14 -35 -28 -35 -44 0 -19 10 -26 65 -44 73 -23 172 -28 199 -8 14 10 16 26 14 102 -3 87 -4 89 -33 106 -32 19 -90 30 -116 23z"/>
 <path d="M1459 8528 c-7 -27 -3 -48 9 -48 8 0 12 6 9 15 -4 8 -1 17 5 21 7 4 8 3 4 -4 -4 -7 -2 -12 4 -12 18 0 6 25 -13 28 -9 2 -17 2 -18 0z"/>
 <path d="M1510 8499 c0 -6 -10 -19 -22 -29 -34 -27 -14 -36 21 -10 33 23 41 50 16 50 -8 0 -15 -5 -15 -11z"/>
 <path d="M3746 8489 c-36 -28 -34 -74 3 -74 33 0 69 58 51 80 -16 20 -22 19 -54 -6z"/>
 <path d="M1203 8388 c-14 -16 -6 -32 20 -41 21 -8 23 11 4 37 -11 15 -15 16 -24 4z"/>
 <path d="M1334 8327 c-10 -28 16 -107 49 -144 29 -33 78 -45 92 -22 8 12 -27 64 -89 134 -38 42 -46 47 -52 32z"/>
 <path d="M2938 8313 c-25 -2 -51 -10 -57 -16 -14 -18 31 -109 67 -137 47 -37 153 -133 195 -177 27 -29 62 -51 111 -71 83 -34 195 -74 251 -92 22 -7 52 -21 66 -31 14 -10 47 -23 72 -29 43 -9 76 -21 123 -42 22 -10 74 -3 107 14 12 6 17 21 17 47 0 32 -15 61 -87 167 -93 139 -200 254 -275 296 -53 29 -164 58 -200 51 -12 -2 -57 3 -98 11 -69 15 -176 18 -292 9z"/>
 <path d="M1187 8286 c-3 -7 -1 -18 5 -24 7 -7 1 -10 -23 -8 -29 2 -41 -4 -83 -45 -30 -30 -45 -52 -40 -60 4 -8 3 -10 -5 -5 -15 10 -65 -39 -56 -54 3 -6 11 -8 16 -4 5 3 7 8 5 12 -2 4 2 15 9 25 11 16 13 16 19 2 4 -11 -3 -24 -20 -38 -14 -12 -42 -37 -61 -54 -19 -18 -39 -33 -44 -33 -5 0 -9 -9 -9 -20 0 -11 -6 -20 -12 -21 -7 -1 -24 -2 -38 -2 -15 -1 -26 -9 -28 -19 -3 -15 4 -18 36 -18 34 0 45 6 88 53 46 49 82 93 134 159 11 15 52 48 90 73 55 36 70 52 70 71 0 19 -5 24 -24 24 -13 0 -26 -6 -29 -14z"/>
 <path d="M661 8045 c-27 -14 -26 -15 58 -70 40 -27 56 -33 62 -23 4 6 5 16 3 20 -3 4 0 8 6 8 6 0 8 5 4 12 -5 8 -11 6 -19 -6 -11 -14 -14 -15 -25 -1 -9 11 -9 15 -1 15 8 0 8 4 -1 14 -7 8 -16 12 -19 10 -3 -2 -15 5 -26 15 -16 16 -23 17 -42 6z"/>
 <path d="M547 8044 c-14 -15 -6 -34 14 -34 14 0 19 5 17 17 -3 18 -20 27 -31 17z"/>
 <path d="M530 7966 c-12 -24 -7 -46 11 -46 11 0 39 -25 39 -35 0 -14 39 -47 49 -40 7 4 11 -3 11 -17 0 -39 14 -51 49 -43 18 4 30 12 28 18 -2 7 -30 32 -62 56 -31 24 -70 64 -85 87 l-27 43 -13 -23z"/>
 <path d="M1934 7973 c-123 -72 -143 -106 -108 -193 12 -30 35 -55 88 -94 86 -64 104 -74 147 -80 19 -3 66 -9 104 -15 39 -6 91 -10 116 -9 41 0 121 -10 239 -33 89 -16 136 -28 215 -53 44 -14 99 -28 123 -32 38 -6 42 -5 42 15 0 17 -19 30 -92 66 -89 42 -188 105 -470 299 -169 115 -235 146 -313 146 -39 0 -71 -6 -91 -17z"/>
 <path d="M846 7771 c-11 -17 6 -42 52 -77 65 -49 112 -44 98 10 -10 39 -134 94 -150 67z"/>
 <path d="M663 7743 c-3 -6 0 -20 6 -30 11 -22 -9 -45 -48 -58 -12 -3 -21 -13 -21 -21 0 -8 -7 -14 -15 -14 -8 0 -15 -6 -15 -14 0 -21 17 -28 24 -10 3 8 10 12 16 9 14 -9 3 -25 -27 -36 -22 -8 -25 -14 -21 -42 7 -44 1 -60 -17 -44 -7 7 -10 17 -8 22 3 6 -2 3 -12 -7 -16 -15 -16 -18 -1 -39 21 -31 20 -36 -9 -43 -14 -4 -23 -11 -20 -16 3 -6 -4 -10 -15 -10 -18 0 -21 -4 -16 -23 5 -20 2 -23 -22 -21 -54 2 -60 4 -65 25 -5 17 -11 20 -29 15 -53 -16 -98 -18 -113 -6 -19 16 -45 6 -45 -19 0 -24 25 -34 50 -19 15 10 31 9 72 -1 29 -7 78 -15 109 -18 l56 -5 34 44 c43 55 53 72 70 132 8 27 24 59 37 73 12 13 22 27 22 30 0 3 13 22 28 42 25 31 52 89 52 111 0 13 -52 6 -57 -7z"/>
 <path d="M643 7564 c-3 -8 -1 -20 6 -27 14 -14 47 15 37 32 -10 16 -36 13 -43 -5z"/>
 <path d="M2125 7420 c-22 -4 -69 -13 -105 -19 -142 -23 -283 -94 -441 -221 -174 -139 -251 -231 -329 -388 -47 -96 -154 -367 -181 -459 -45 -153 -57 -201 -63 -253 -4 -30 -11 -73 -16 -95 -59 -268 -75 -608 -45 -955 13 -157 41 -365 51 -381 7 -12 -7 -39 -22 -39 -7 0 -17 17 -23 38 -5 20 -19 73 -30 117 -61 234 -95 492 -92 680 2 111 19 320 32 381 6 31 6 60 1 75 -6 16 -5 30 3 44 16 26 58 222 50 235 -14 22 -34 8 -40 -27 -4 -21 -13 -56 -22 -78 -39 -102 -55 -193 -60 -330 -6 -193 -16 -278 -30 -282 -17 -6 -33 39 -33 91 0 46 -13 66 -44 66 -19 0 -19 -6 -12 -272 3 -150 8 -284 10 -298 2 -14 9 -61 15 -105 19 -132 42 -255 61 -335 10 -41 24 -108 30 -148 20 -126 87 -323 165 -487 54 -114 67 -155 47 -155 -17 0 -72 67 -72 87 0 24 -36 73 -54 73 -7 0 -21 -9 -31 -20 -16 -18 -17 -32 -11 -122 3 -57 11 -123 17 -148 21 -90 83 -147 149 -134 51 11 132 93 172 176 38 78 107 152 153 164 14 3 52 4 84 2 49 -3 65 -10 104 -42 49 -40 94 -102 83 -114 -4 -3 -21 0 -39 7 -51 21 -83 24 -134 12 -68 -17 -135 -62 -250 -168 -185 -173 -306 -227 -513 -228 -238 0 -347 73 -430 288 -46 118 -62 230 -64 437 -1 202 2 220 67 363 22 49 27 71 19 79 -18 18 -37 2 -79 -69 -87 -147 -108 -249 -108 -523 1 -188 3 -209 23 -258 12 -29 22 -63 22 -75 0 -73 111 -264 215 -370 71 -74 162 -147 180 -147 4 0 25 -13 48 -30 78 -56 198 -79 382 -76 l130 3 182 72 c100 39 184 71 188 71 4 0 20 9 36 21 40 28 175 76 225 80 34 2 49 -4 99 -39 32 -23 64 -42 71 -42 30 0 151 32 179 47 36 19 83 61 96 86 20 35 -39 107 -164 201 -86 64 -132 118 -123 141 12 33 37 19 189 -102 26 -21 64 -52 85 -70 l37 -32 0 -83 c0 -64 -4 -90 -18 -112 -44 -67 4 -111 135 -122 70 -6 80 -5 121 19 86 51 124 116 97 167 -5 10 -60 43 -122 74 -288 143 -391 244 -512 501 -16 33 -32 67 -37 75 -18 30 -21 40 -15 55 11 29 44 -2 65 -62 12 -32 30 -74 41 -93 25 -46 92 -129 105 -130 6 0 22 -15 36 -33 23 -28 217 -167 234 -167 4 0 34 -17 67 -37 65 -40 185 -164 194 -201 9 -34 -12 -97 -46 -133 -23 -25 -27 -36 -19 -51 17 -31 64 -48 138 -48 112 0 213 55 273 149 33 52 35 75 9 116 -42 70 -84 96 -228 145 -157 53 -232 87 -318 147 -143 99 -214 188 -324 408 -50 99 -91 186 -91 194 0 7 -18 52 -40 98 -40 85 -42 113 -9 113 19 0 59 -64 59 -94 0 -9 6 -30 14 -48 8 -18 33 -82 56 -143 49 -125 92 -202 147 -261 50 -53 144 -130 213 -174 30 -19 73 -49 94 -67 22 -18 45 -33 52 -33 13 0 15 -1 167 -76 163 -81 277 -188 277 -259 0 -19 -10 -63 -23 -98 -24 -66 -23 -92 7 -116 14 -12 29 -10 98 14 46 15 92 32 103 38 43 23 150 136 205 217 74 109 79 126 46 141 -20 10 -30 9 -49 -4 -23 -15 -26 -15 -42 3 -23 26 -12 50 22 50 16 0 37 6 48 13 11 8 43 22 70 32 63 23 133 69 163 106 l23 28 -21 21 c-20 20 -28 21 -113 15 -76 -6 -125 -18 -287 -72 -183 -62 -202 -66 -306 -71 -108 -4 -113 -4 -175 26 -65 31 -199 115 -254 160 -140 112 -253 273 -306 433 -17 51 -41 109 -54 129 -12 19 -27 51 -34 70 -10 31 -76 147 -90 160 -3 3 -14 19 -23 36 -15 26 -15 34 -5 43 31 25 125 -134 218 -367 75 -190 154 -320 258 -423 69 -68 105 -95 167 -125 l79 -38 145 0 c150 0 236 13 359 55 35 12 118 25 221 34 194 17 265 35 320 82 114 98 100 239 -36 377 -124 125 -184 155 -309 156 -64 0 -188 -20 -270 -45 -27 -8 -97 -29 -155 -46 -137 -40 -268 -49 -369 -24 -84 20 -101 13 -101 -45 0 -30 12 -55 62 -124 63 -89 113 -137 164 -156 50 -20 153 -13 259 16 55 15 122 33 150 41 59 16 155 17 210 2 84 -23 103 -22 147 4 24 14 54 37 67 51 14 14 30 26 38 26 46 0 -32 -96 -110 -134 -58 -29 -118 -33 -161 -11 -48 25 -124 19 -181 -16 -272 -163 -481 -143 -624 61 -23 32 -41 61 -41 64 0 3 -11 29 -24 58 -25 56 -34 81 -91 269 -68 223 -200 452 -364 632 -53 57 -61 87 -24 87 24 0 108 -90 171 -183 28 -43 52 -79 52 -82 0 -16 104 -155 120 -160 11 -3 36 -1 55 6 52 19 59 5 35 -67 -11 -32 -20 -75 -20 -94 0 -46 39 -114 68 -118 35 -5 43 32 24 110 -14 58 -14 75 -2 140 8 40 25 92 37 114 29 52 103 121 151 141 69 29 205 -3 273 -63 9 -8 33 -48 54 -89 31 -62 38 -88 42 -157 7 -96 15 -118 47 -118 36 0 61 35 60 85 -1 46 -54 153 -106 213 -32 38 -35 57 -11 67 36 13 141 -145 162 -244 11 -53 22 -65 50 -56 25 8 29 50 7 80 -49 71 -232 480 -280 628 -13 39 -40 131 -60 202 -20 72 -43 152 -51 179 -8 26 -15 55 -15 63 0 8 -6 35 -14 61 -39 130 -49 215 -31 269 10 30 33 -1 38 -50 8 -72 57 -338 76 -407 35 -128 42 -149 89 -250 16 -36 33 -76 37 -90 26 -90 180 -417 215 -455 10 -11 37 -51 60 -90 106 -178 272 -306 482 -373 86 -28 115 -28 123 -1 6 17 -1 28 -31 52 -168 134 -305 354 -349 562 -9 44 -19 88 -22 98 -2 9 -28 32 -56 51 -144 92 -238 246 -352 581 -27 77 -63 171 -81 209 -39 81 -62 172 -47 187 28 28 79 -49 111 -171 59 -221 120 -369 225 -545 90 -151 122 -190 180 -223 29 -16 58 -36 65 -44 6 -8 19 -53 28 -99 19 -100 75 -226 137 -306 93 -121 245 -247 354 -294 64 -27 207 -61 227 -53 38 15 36 38 -10 115 -24 41 -44 82 -44 91 0 33 -40 108 -74 142 -20 19 -64 50 -98 69 -35 19 -85 47 -112 62 -65 36 -95 64 -180 167 -78 95 -116 152 -116 174 0 35 62 -1 85 -49 20 -40 81 -99 207 -200 87 -69 290 -162 387 -178 60 -10 81 -9 143 6 40 9 86 26 101 37 25 18 38 19 125 13 111 -7 153 4 195 54 27 33 45 107 29 123 -15 15 -114 16 -144 2 -14 -8 -37 -27 -50 -42 -12 -16 -35 -37 -49 -46 -26 -16 -28 -16 -55 8 -29 24 -29 25 -27 126 l2 102 -91 91 c-50 51 -105 115 -122 142 -72 115 -146 312 -306 815 -124 392 -227 593 -387 760 -105 110 -147 134 -223 127 -39 -3 -80 -16 -127 -40 -119 -62 -141 -68 -243 -69 -158 0 -230 45 -230 144 0 45 4 54 34 81 42 37 133 67 208 67 103 0 195 -27 347 -101 79 -38 167 -79 195 -90 105 -39 302 -281 388 -474 47 -107 56 -129 82 -210 46 -138 58 -177 62 -204 3 -14 14 -62 26 -106 11 -44 24 -96 28 -115 82 -377 205 -639 334 -715 70 -41 164 -52 496 -60 292 -6 308 -5 372 15 79 24 130 63 126 94 -2 16 -9 20 -28 19 -14 -1 -32 -3 -40 -4 -8 0 -43 4 -77 11 -58 11 -66 10 -103 -9 -22 -11 -40 -17 -40 -13 0 4 -4 1 -9 -6 -5 -9 -32 -14 -82 -14 -78 -1 -131 10 -216 43 -49 20 -53 20 -110 4 -32 -10 -65 -21 -73 -25 -18 -9 -94 26 -147 66 -54 41 -119 111 -159 171 -54 82 -117 224 -105 236 6 6 12 9 14 6 2 -2 23 -33 47 -69 106 -156 205 -255 307 -305 93 -45 124 -45 175 0 45 41 55 41 134 -11 87 -58 140 -77 201 -72 35 3 61 12 76 25 40 37 81 44 123 22 47 -24 61 -24 100 0 35 21 69 85 79 149 6 38 5 42 -14 42 -12 0 -30 -6 -41 -12 -17 -11 -23 -10 -39 7 -19 20 -26 62 -45 276 -14 148 -41 280 -80 384 -13 33 -31 87 -40 120 -10 33 -36 105 -58 160 -73 179 -89 228 -77 240 13 13 69 -47 69 -74 0 -10 9 -26 20 -36 11 -10 22 -34 26 -54 7 -43 22 -98 34 -126 5 -11 19 -45 30 -75 12 -30 44 -104 72 -165 28 -60 54 -127 58 -147 14 -71 51 -90 67 -35 7 25 5 45 -9 87 -11 30 -23 73 -27 95 -5 22 -25 103 -46 180 -89 337 -188 570 -273 645 -65 58 -82 63 -207 65 -66 1 -135 9 -171 18 -83 23 -333 24 -424 3 -103 -25 -148 -21 -226 19 -38 19 -75 35 -83 35 -7 0 -73 20 -147 44 -158 53 -224 66 -224 43 0 -15 87 -77 107 -77 20 0 198 -197 236 -260 21 -36 52 -87 69 -114 16 -27 53 -93 81 -145 28 -53 65 -119 82 -148 187 -321 287 -505 348 -643 38 -85 67 -165 67 -185 0 -25 -29 -55 -53 -55 -37 0 -135 166 -223 375 -20 50 -41 95 -45 100 -4 6 -36 82 -72 170 -87 214 -124 296 -235 510 -179 347 -608 560 -1202 596 -164 10 -211 17 -435 68 -149 34 -332 48 -410 31z m2479 -649 c41 -68 41 -67 20 -75 -12 -4 -15 -2 -10 9 3 8 1 15 -4 15 -6 0 -10 10 -10 22 0 12 -3 18 -7 15 -7 -8 -33 38 -33 59 0 24 7 16 44 -45z m415 -57 c-26 -28 -47 -18 -30 14 7 14 17 18 31 15 21 -6 21 -6 -1 -29z m71 -30 c22 -34 22 -53 1 -39 -6 3 -11 12 -11 19 0 8 -7 19 -15 26 -8 7 -12 16 -9 21 8 14 11 12 34 -27z m-412 -29 c29 -46 28 -48 -8 -17 -16 15 -30 32 -30 39 0 22 14 14 38 -22z m456 -41 c9 -24 7 -27 -9 -10 -17 17 -19 26 -6 26 5 0 12 -7 15 -16z m136 -511 c0 -22 -8 -14 -19 20 -10 29 -9 30 4 13 8 -11 15 -26 15 -33z m-1185 -553 c0 -7 -7 -15 -15 -17 -13 -4 -13 -3 0 6 10 7 11 11 3 11 -7 0 -13 5 -13 11 0 6 6 9 13 7 6 -3 12 -11 12 -18z m-1593 -66 c104 -26 256 -150 222 -184 -7 -7 -34 1 -92 30 -93 45 -125 49 -184 19 -50 -25 -65 -43 -112 -130 -29 -53 -37 -82 -43 -143 -6 -79 -20 -95 -35 -40 -11 41 -1 227 15 296 16 65 56 124 96 140 14 5 33 14 41 18 20 12 17 12 92 -6z m1653 -95 c8 -23 -7 -45 -24 -35 -12 8 -15 39 -4 49 12 12 22 7 28 -14z m-77 -186 c2 -8 -5 -13 -17 -13 -12 0 -21 6 -21 16 0 18 31 15 38 -3z m-165 -31 c4 8 6 7 6 -4 1 -20 0 -21 -23 -12 -9 3 -16 11 -16 16 0 6 6 6 14 -1 11 -9 15 -9 19 1z m237 -57 c10 -12 9 -16 -5 -21 -17 -7 -38 13 -29 28 8 12 20 10 34 -7z m-1182 -131 c24 -16 28 -29 10 -40 -7 -4 -23 6 -40 27 -24 28 -30 31 -38 19 -5 -8 -10 -10 -10 -4 0 28 31 27 78 -2z m1190 -57 c2 -10 -3 -17 -12 -17 -18 0 -29 16 -21 31 9 14 29 6 33 -14z m87 -47 c3 -5 4 -14 0 -20 -8 -13 -35 -1 -35 16 0 16 26 19 35 4z m-2986 -615 c43 -15 125 -66 151 -94 115 -125 101 -177 -21 -79 -69 55 -130 87 -167 88 -28 0 -99 -40 -132 -75 -12 -13 -27 -22 -31 -19 -30 18 16 150 60 178 33 20 86 20 140 1z"/>
 <path d="M235 7412 c-10 -11 9 -22 36 -22 20 0 29 4 27 13 -4 11 -53 18 -63 9z"/>
 <path d="M133 7314 c-8 -21 13 -42 28 -27 13 13 5 43 -11 43 -6 0 -13 -7 -17 -16z"/>
 <path d="M175 7290 c-7 -22 22 -73 39 -67 18 6 19 39 2 49 -9 5 -16 16 -16 23 0 22 -18 18 -25 -5z"/>
 <path d="M262 7228 c-17 -17 -15 -30 5 -26 9 2 17 11 19 21 3 20 -7 22 -24 5z"/>
 <path d="M320 7200 c-12 -8 -11 -12 8 -30 12 -11 22 -25 22 -30 0 -14 24 -12 38 2 9 9 6 18 -15 40 -30 31 -32 32 -53 18z"/>
 <path d="M566 7154 c-3 -9 -3 -20 0 -25 8 -14 73 -39 100 -39 55 0 36 48 -27 67 -57 17 -66 16 -73 -3z"/>
 <path d="M5342 7159 c-60 -18 -55 -30 66 -170 60 -71 127 -210 183 -384 11 -33 28 -87 39 -120 106 -328 144 -687 106 -995 -30 -233 -64 -319 -170 -416 -58 -54 -66 -65 -66 -98 0 -28 4 -36 19 -36 16 0 70 44 72 59 4 32 14 49 52 90 54 58 99 144 122 232 9 35 29 93 45 129 68 156 66 497 -5 660 -8 19 -24 69 -34 110 -11 41 -31 118 -44 170 -47 175 -59 254 -66 436 -7 172 -8 182 -34 226 -33 57 -72 86 -140 104 -59 16 -97 16 -145 3z"/>
 <path d="M3103 7114 c-25 -11 -14 -49 20 -69 26 -16 50 -20 130 -20 92 0 100 2 118 24 25 31 24 35 -8 51 -28 14 -236 25 -260 14z"/>
 <path d="M371 7099 c-22 -9 -23 -13 -18 -59 5 -40 3 -50 -8 -50 -8 0 -15 5 -15 12 0 9 -3 9 -11 1 -7 -7 -8 -20 -4 -30 10 -27 14 -103 5 -103 -5 0 -10 6 -13 13 -3 9 -8 9 -17 1 -8 -8 -9 -22 -3 -45 5 -19 11 -58 12 -87 2 -49 1 -52 -21 -50 -15 2 -22 -2 -20 -10 1 -8 -2 -11 -7 -8 -5 4 -12 2 -15 -3 -4 -5 -2 -12 4 -16 25 -16 5 -25 -56 -25 -48 0 -65 -3 -62 -12 7 -19 91 -21 132 -4 42 17 66 63 66 122 0 21 4 51 10 68 5 17 19 74 30 126 11 52 25 110 31 128 13 40 11 42 -20 31z"/>
 <path d="M0 6620 c0 -11 6 -20 13 -20 8 0 22 9 32 20 18 20 17 20 -13 20 -25 0 -32 -4 -32 -20z"/>
 <path d="M40 6509 c0 -5 -4 -8 -8 -5 -4 2 -9 -4 -9 -15 -2 -25 13 -25 27 0 13 25 13 31 0 31 -5 0 -10 -5 -10 -11z"/>
 <path d="M325 6502 c-18 -18 0 -42 46 -61 59 -26 74 -28 112 -13 33 14 36 46 6 63 -22 11 -154 20 -164 11z"/>
 <path d="M90 6469 c-13 -24 -9 -32 11 -24 16 6 23 45 9 45 -5 0 -14 -9 -20 -21z"/>
 <path d="M157 6440 c5 -19 14 -24 41 -21 8 1 12 -18 13 -66 1 -133 -5 -264 -17 -336 -3 -21 -1 -43 4 -50 6 -7 6 -21 1 -35 -8 -20 -14 -23 -43 -19 -45 6 -60 -4 -42 -28 12 -17 18 -18 53 -7 76 23 76 22 74 287 -1 130 -4 242 -7 250 -6 14 -58 45 -75 45 -4 0 -5 -9 -2 -20z"/>
 <path d="M50 5986 c0 -8 38 -46 46 -46 3 0 4 10 2 23 -2 14 -11 23 -25 25 -13 2 -23 1 -23 -2z"/>
 <path d="M70 5880 c0 -13 5 -18 15 -14 12 5 13 10 4 20 -15 19 -19 18 -19 -6z"/>
 <path d="M313 5833 c-43 -6 -64 -40 -37 -60 21 -15 63 -17 99 -3 21 8 26 16 23 38 -3 29 -19 34 -85 25z"/>
 <path d="M5622 5719 c6 -92 20 -128 38 -99 9 14 5 113 -6 168 -2 12 -12 22 -21 22 -14 0 -15 -12 -11 -91z"/>
 <path d="M490 5690 c-19 -10 -55 -24 -79 -31 -63 -19 -75 -42 -61 -121 18 -99 39 -164 60 -183 25 -23 109 -31 133 -13 15 11 18 37 24 168 8 202 0 220 -77 180z"/>
 <path d="M307 5333 c-4 -3 -7 -15 -7 -25 0 -10 -3 -18 -8 -18 -4 0 -12 -16 -18 -35 -14 -43 -4 -45 30 -4 20 23 24 37 20 57 -8 33 -9 34 -17 25z"/>
 <path d="M210 5213 c-18 -7 -30 -23 -30 -41 0 -11 7 -9 29 5 41 25 42 51 1 36z"/>
 <path d="M378 5188 c-27 -9 -38 -41 -19 -52 12 -8 63 12 73 27 22 35 0 45 -54 25z"/>
 <path d="M124 5157 c-8 -21 2 -35 16 -21 5 5 6 15 0 24 -8 12 -10 12 -16 -3z"/>
 <path d="M59 5116 c-13 -14 -32 -26 -41 -26 -26 0 -22 -15 5 -17 30 -2 85 43 71 57 -8 8 -18 4 -35 -14z"/>
 <path d="M502 5083 c-18 -9 -32 -19 -32 -24 0 -15 60 -216 76 -256 18 -44 52 -83 71 -83 15 0 16 21 4 70 -5 19 -12 66 -15 103 -8 89 -35 186 -56 197 -10 5 -28 3 -48 -7z"/>
 <path d="M280 5082 c0 -5 11 -14 25 -20 14 -6 25 -18 25 -26 0 -8 6 -21 13 -28 8 -7 16 -27 20 -45 3 -18 20 -54 36 -80 29 -45 31 -46 31 -20 0 33 -74 197 -97 215 -19 14 -53 16 -53 4z"/>
 <path d="M167 5056 c-4 -10 0 -12 14 -9 10 3 16 9 13 14 -8 13 -21 11 -27 -5z"/>
 <path d="M5004 5026 c-10 -26 5 -36 52 -36 41 0 45 2 42 23 -2 18 -10 23 -46 25 -30 2 -44 -1 -48 -12z"/>
 <path d="M5103 4925 c-14 -11 -63 -135 -63 -160 0 -20 52 -45 92 -45 69 0 172 32 206 63 53 51 41 115 -25 138 -45 16 -190 18 -210 4z"/>
 <path d="M2690 4845 c-35 -18 -107 -106 -130 -157 -57 -125 27 -348 131 -348 45 0 48 26 7 63 -32 30 -57 72 -73 125 -4 13 -3 62 1 110 6 80 9 89 39 119 28 28 40 33 79 33 61 0 130 -33 156 -75 11 -18 20 -35 20 -39 0 -3 -16 -24 -36 -46 -35 -39 -36 -41 -20 -65 9 -14 21 -25 26 -25 5 0 16 -13 25 -29 13 -26 13 -33 -1 -67 -14 -33 -14 -38 0 -52 41 -41 111 61 107 155 -6 143 -65 249 -166 294 -47 22 -129 24 -165 4z"/>
 <path d="M431 4831 c-10 -6 -9 -11 3 -23 8 -9 17 -32 19 -53 2 -20 9 -40 16 -45 10 -6 10 -12 0 -28 -17 -27 -4 -41 18 -19 16 15 15 22 -7 92 -26 82 -29 88 -49 76z"/>
 <path d="M4676 4626 c-29 -39 -33 -63 -13 -90 19 -26 49 -14 81 32 29 42 32 62 14 80 -22 22 -55 13 -82 -22z"/>
 <path d="M145 4598 c-25 -24 -45 -50 -45 -59 0 -9 -7 -22 -15 -29 -8 -7 -15 -21 -15 -32 0 -11 -7 -26 -15 -34 -8 -9 -15 -24 -15 -34 0 -10 -9 -20 -20 -23 -27 -7 -27 -60 -1 -88 l19 -21 11 20 c6 12 11 29 11 40 0 62 77 223 125 260 26 20 33 42 15 42 -6 0 -31 -19 -55 -42z"/>
 <path d="M4912 4628 c-19 -19 -14 -53 11 -76 28 -27 49 -28 70 -4 22 25 21 44 -3 70 -23 24 -59 29 -78 10z"/>
 <path d="M4983 4297 c-37 -25 -73 -89 -66 -117 3 -10 16 -28 29 -41 49 -46 17 -67 -39 -25 -45 33 -139 79 -222 107 -54 18 -91 24 -165 24 -162 0 -321 -23 -422 -61 -26 -9 -46 -10 -70 -4 -50 15 -93 12 -118 -8 -20 -17 -22 -22 -13 -64 22 -100 -23 -212 -126 -312 -30 -30 -53 -62 -56 -80 -24 -113 -52 -155 -130 -191 -71 -32 -121 -96 -145 -183 -5 -22 -22 -56 -36 -77 -35 -52 -29 -79 17 -83 32 -3 44 3 97 52 81 76 114 75 116 -3 1 -32 4 -36 30 -39 24 -3 38 6 85 56 31 32 85 108 121 168 36 60 81 129 101 154 34 43 50 68 88 139 24 43 51 124 51 151 0 14 6 35 14 46 8 11 23 47 34 80 14 45 24 59 38 59 27 0 22 -47 -12 -109 -15 -27 -30 -63 -35 -80 -14 -54 -46 -141 -68 -184 -12 -23 -21 -49 -21 -58 0 -25 -46 -114 -133 -258 -67 -111 -76 -131 -64 -144 12 -12 22 -11 68 2 30 9 108 19 174 23 104 5 127 10 175 34 99 49 160 108 160 152 0 20 -14 18 -125 -18 -90 -30 -120 -34 -120 -16 0 22 141 91 185 91 8 0 37 11 65 24 27 13 68 29 90 36 71 23 235 149 235 180 0 28 -31 47 -104 65 -58 15 -75 15 -110 5 -90 -27 -202 -5 -194 38 3 17 13 19 105 21 28 1 34 6 41 34 10 41 40 46 98 18 93 -47 272 -53 354 -11 87 43 121 92 141 204 14 75 2 149 -33 199 -23 32 -42 33 -85 4z m-969 -350 c-3 -8 -11 -14 -19 -14 -11 0 -12 4 -4 14 6 7 15 13 20 13 5 0 6 -6 3 -13z m-31 -40 c3 -8 1 -20 -5 -28 -8 -11 -9 -10 -4 4 3 9 1 17 -5 17 -6 0 -7 5 -4 10 8 13 12 13 18 -3z m445 -228 c-2 -6 -8 -10 -13 -10 -5 0 -11 4 -13 10 -2 6 4 11 13 11 9 0 15 -5 13 -11z m-571 -77 c-27 -40 -100 -163 -132 -224 -11 -21 -25 -38 -32 -38 -21 0 -15 33 12 62 14 15 25 30 25 35 0 9 107 181 129 206 27 31 25 -1 -2 -41z m348 -12 c1 -11 -4 -20 -11 -20 -7 0 -16 -9 -19 -20 -3 -11 -15 -20 -25 -20 -10 0 -22 -4 -25 -10 -9 -14 -45 -12 -45 3 0 21 14 35 42 42 14 4 36 18 49 31 24 26 32 25 34 -6z"/>
 <path d="M0 3726 c0 -66 4 -96 13 -99 9 -3 8 -8 -3 -22 -9 -11 -10 -16 -3 -11 8 4 13 1 13 -8 0 -9 5 -16 10 -16 6 0 10 -9 10 -19 0 -11 7 -26 15 -35 8 -8 15 -21 15 -29 0 -8 7 -20 15 -27 8 -7 16 -22 16 -34 1 -18 2 -19 6 -2 3 10 1 28 -5 40 -38 83 -66 185 -77 288 -10 94 -25 79 -25 -26z"/>
 <path d="M7983 3743 c15 -2 39 -2 55 0 15 2 2 4 -28 4 -30 0 -43 -2 -27 -4z"/>
 <path d="M10216 1983 l5 -1568 -176 -175 c-96 -96 -175 -178 -175 -182 0 -5 14 -8 30 -8 25 0 30 4 30 25 0 14 4 25 9 25 4 0 23 16 42 36 19 20 45 46 58 58 13 11 31 29 40 40 9 10 49 51 89 91 l72 72 0 1577 c0 1387 -2 1576 -15 1576 -13 0 -14 -186 -9 -1567z"/>
 <path d="M4978 3429 c-9 -5 -19 -22 -23 -38 -10 -46 -57 -104 -115 -141 -67 -43 -112 -44 -245 -6 -90 26 -104 28 -145 17 -24 -7 -52 -18 -60 -25 -53 -47 -219 -106 -295 -106 -20 0 -40 -9 -54 -24 -12 -13 -51 -38 -87 -57 -36 -18 -68 -37 -71 -42 -12 -20 24 -59 84 -89 48 -23 86 -33 161 -41 152 -17 261 -15 301 5 25 13 38 15 47 7 9 -7 21 -6 43 5 16 9 41 16 54 16 12 0 27 4 32 9 6 4 33 17 60 27 113 41 218 118 271 199 34 50 71 158 81 236 5 41 -12 63 -39 48z"/>
 <path d="M121 3378 c11 -23 49 -63 49 -54 0 3 -9 21 -21 40 -23 39 -47 50 -28 14z"/>
 <path d="M7071 3269 c-40 -38 -72 -72 -70 -74 3 -2 9 -1 14 3 16 13 140 142 135 142 -3 -1 -38 -32 -79 -71z"/>
 <path d="M177 3276 c23 -31 55 -52 47 -31 -4 8 -10 15 -14 15 -4 0 -10 9 -13 20 -3 11 -13 20 -22 20 -14 0 -14 -2 2 -24z"/>
 <path d="M220 3201 c0 -5 7 -11 15 -15 8 -3 15 -13 15 -23 0 -28 93 -104 170 -140 25 -12 59 -35 75 -53 53 -57 92 -70 203 -70 76 0 102 -4 112 -15 17 -20 167 -21 194 0 27 21 12 33 -36 28 -49 -6 -309 30 -382 52 -27 8 -63 26 -80 39 -17 12 -47 31 -66 41 -53 26 -168 122 -175 145 -6 19 -45 29 -45 11z"/>
 <path d="M1600 3112 c0 -15 36 -42 56 -42 10 0 28 -7 38 -15 29 -22 92 -18 150 9 28 13 64 27 80 31 50 11 21 16 -34 5 -76 -14 -162 -12 -203 5 -40 16 -87 20 -87 7z"/>
 <path d="M2050 3073 c0 -6 6 -15 13 -20 17 -14 58 -23 51 -12 -3 5 -10 9 -16 9 -6 0 -20 7 -30 17 -10 9 -18 11 -18 6z"/>
 <path d="M2162 3010 c2 -11 18 -16 56 -18 45 -3 52 -1 52 15 0 16 -8 19 -55 19 -45 0 -55 -3 -53 -16z"/>
 <path d="M1293 3000 c-23 -12 -29 -20 -22 -31 7 -11 15 -8 41 19 36 35 30 39 -19 12z"/>
 <path d="M2431 2991 c6 -16 21 -37 34 -45 34 -22 98 -21 118 2 26 28 21 32 -37 32 -38 0 -60 6 -79 20 -37 29 -48 26 -36 -9z"/>
 <path d="M2710 3000 c-90 -19 -95 -21 -79 -31 8 -6 85 -9 184 -7 l170 3 3 -60 c2 -39 8 -63 18 -68 8 -4 14 -15 14 -22 0 -8 5 -15 10 -15 15 0 2 162 -14 178 -7 7 -39 15 -72 17 -32 2 -88 6 -124 9 -36 3 -85 1 -110 -4z"/>
 <path d="M1093 2934 c-7 -3 -9 -12 -7 -19 5 -11 10 -12 24 -3 28 18 14 34 -17 22z"/>
 <path d="M2494 2638 c-244 -254 -308 -332 -117 -143 176 174 147 162 406 164 182 1 193 20 14 23 l-122 2 115 6 c112 6 111 6 -61 8 l-175 2 -60 -62z"/>
 </g>
<g id="layer103" fill="#9e2a33" stroke="none">
 <path d="M2328 9575 c-5 -5 -8 -178 -8 -385 l0 -378 28 -11 c23 -10 49 -9 121 3 51 8 99 12 106 10 24 -10 51 31 69 102 38 157 45 173 77 190 28 14 32 14 50 -2 13 -12 19 -31 20 -63 1 -86 15 -140 43 -170 23 -24 44 -31 139 -50 62 -12 130 -25 152 -30 51 -12 94 -4 122 21 12 11 50 60 84 109 35 49 71 92 81 95 50 16 61 -50 27 -158 -11 -37 -19 -83 -17 -104 3 -33 9 -41 51 -66 27 -16 52 -26 57 -23 5 3 28 -6 51 -20 22 -15 47 -24 54 -21 12 4 65 -5 96 -18 12 -5 39 15 96 73 78 78 108 96 154 89 40 -5 31 -73 -24 -196 -26 -56 -47 -114 -47 -129 0 -14 14 -44 30 -67 17 -23 52 -70 78 -106 26 -36 77 -96 115 -134 37 -38 67 -73 67 -77 0 -5 48 -62 108 -127 114 -124 205 -242 216 -279 4 -13 11 -23 16 -23 5 0 21 -20 36 -45 28 -48 129 -145 151 -145 7 0 13 -4 13 -10 0 -5 6 -10 13 -10 6 -1 28 -14 47 -30 19 -17 39 -30 46 -30 6 0 42 -14 80 -31 38 -17 89 -40 113 -51 56 -25 98 -20 196 23 49 21 79 29 92 24 10 -4 38 -9 62 -10 70 -4 202 -78 269 -150 76 -82 98 -136 106 -260 9 -135 29 -244 87 -485 80 -327 99 -510 74 -710 -40 -320 -107 -496 -280 -735 -28 -38 -64 -92 -80 -120 -44 -78 -126 -150 -228 -200 -49 -25 -101 -45 -116 -45 -14 0 -37 -6 -51 -13 -25 -13 -25 -12 -45 -147 -5 -34 -2 -59 15 -105 52 -140 60 -171 60 -227 0 -32 -6 -71 -14 -86 -7 -15 -16 -43 -20 -63 -4 -21 -26 -58 -56 -94 -57 -67 -63 -100 -30 -165 30 -59 42 -167 30 -266 -29 -232 -67 -326 -182 -449 -109 -116 -234 -190 -384 -226 -76 -18 -109 -21 -219 -16 -163 7 -272 36 -400 110 -149 84 -264 137 -323 148 -103 19 -180 15 -251 -14 -36 -15 -83 -27 -107 -27 -27 0 -44 -5 -47 -14 -3 -8 -6 -202 -6 -431 0 -230 -3 -420 -6 -424 -4 -3 -199 -8 -433 -11 l-427 -5 4 -935 c2 -580 7 -942 13 -953 9 -17 22 -19 131 -17 67 1 1704 -1 3637 -4 1933 -3 3520 -2 3527 2 14 9 21 579 25 1964 2 580 0 850 -7 857 -11 11 -2482 18 -2492 7 -2 -2 -5 -206 -6 -452 l-2 -448 -40 -7 c-22 -4 -269 -6 -550 -6 l-510 2 -3 912 -2 911 27 5 c16 3 401 6 857 6 586 0 832 4 842 12 12 10 17 545 15 1753 0 54 -3 102 -8 106 -4 5 -392 10 -860 12 -566 2 -856 7 -863 14 -11 11 -15 1832 -4 1843 3 3 250 7 548 9 447 2 545 0 555 -11 7 -10 12 -153 13 -478 l3 -464 1234 -3 c855 -1 1238 1 1245 8 14 14 22 2798 9 2811 -13 13 -512 18 -2323 24 -866 3 -2347 8 -3290 11 -943 4 -1718 3 -1722 -1z"/>
 <path d="M3272 8713 c-42 -60 -52 -89 -38 -108 17 -24 46 -13 46 17 1 13 7 34 15 48 16 28 20 70 6 70 -5 0 -18 -12 -29 -27z"/>
 <path d="M1975 8626 c2 -48 9 -95 15 -106 20 -37 90 -39 90 -3 -1 26 -83 187 -98 191 -10 3 -11 -15 -7 -82z"/>
 <path d="M2673 8678 c-22 -28 -22 -37 -2 -62 30 -38 40 -32 37 21 -3 47 -17 64 -35 41z"/>
 <path d="M2915 8681 c-38 -16 -55 -47 -63 -114 -10 -80 -32 -109 -105 -133 -69 -23 -121 -14 -164 28 -55 52 -65 79 -51 132 18 69 4 80 -97 73 -44 -3 -93 -10 -110 -16 -16 -5 -42 -12 -57 -15 -44 -10 -50 -35 -31 -114 9 -38 13 -80 10 -94 -16 -61 -86 -113 -176 -130 -36 -7 -53 -4 -88 13 -65 31 -93 70 -93 130 0 36 -4 51 -16 56 -21 8 -174 -50 -247 -94 -82 -49 -87 -64 -43 -120 61 -78 60 -151 0 -222 -38 -44 -118 -91 -155 -91 -29 0 -83 34 -103 65 -9 13 -16 40 -16 58 0 66 -21 65 -101 -8 -40 -36 -76 -65 -80 -65 -16 0 -110 -123 -107 -139 2 -9 26 -31 53 -48 28 -18 55 -40 62 -49 15 -20 9 -154 -8 -187 -28 -53 -86 -97 -131 -97 -33 0 -87 36 -106 71 -34 62 -52 80 -71 70 -27 -15 -80 -72 -87 -95 -4 -11 -26 -52 -50 -90 -86 -137 -82 -166 22 -166 76 0 102 -19 129 -94 23 -62 21 -125 -5 -176 -25 -50 -52 -67 -115 -75 -42 -6 -55 -3 -84 17 -19 12 -42 38 -52 57 -26 50 -35 56 -54 41 -26 -22 -51 -79 -69 -157 -9 -39 -20 -82 -25 -95 -5 -12 -12 -46 -15 -74 -9 -63 8 -87 55 -77 42 8 114 -22 143 -60 13 -18 30 -51 37 -74 11 -37 10 -48 -6 -83 -10 -22 -15 -43 -12 -47 16 -15 46 34 72 115 74 236 232 580 345 752 229 348 508 632 819 834 70 46 222 126 239 126 4 0 47 16 95 36 132 53 239 82 372 99 66 9 137 22 158 30 27 11 80 15 191 15 200 0 210 4 161 62 -27 32 -32 70 -15 127 12 41 1 64 -37 79 -42 16 -96 22 -118 13z"/>
 <path d="M3413 8555 c-12 -9 -28 -34 -35 -56 -7 -25 -24 -50 -45 -66 -18 -14 -33 -30 -33 -35 0 -5 21 -19 48 -30 54 -25 182 -31 203 -11 10 10 14 70 10 160 -1 16 -46 39 -91 48 -24 4 -42 1 -57 -10z"/>
 <path d="M3738 8465 c-9 -20 -9 -28 1 -38 10 -9 16 -7 32 12 25 30 24 51 -1 51 -12 0 -25 -10 -32 -25z"/>
 <path d="M1340 8312 c0 -28 32 -108 51 -128 21 -23 58 -32 72 -18 6 7 -41 84 -52 84 -3 0 -17 16 -30 35 -22 33 -41 45 -41 27z"/>
 <path d="M2962 8303 c-44 -3 -65 -8 -69 -19 -8 -21 37 -101 67 -121 28 -19 87 -72 164 -149 58 -58 98 -83 176 -108 30 -10 73 -27 96 -37 23 -11 51 -19 63 -19 19 0 72 -25 145 -67 12 -7 30 -13 40 -13 24 0 81 -17 123 -38 29 -13 37 -13 70 -1 32 13 38 20 41 49 3 28 -10 53 -85 164 -165 244 -264 318 -449 337 -55 5 -130 14 -169 19 -70 9 -95 9 -213 3z"/>
 <path d="M1965 7973 c-16 -2 -41 -15 -55 -27 -14 -13 -33 -26 -42 -29 -49 -17 -58 -86 -20 -154 18 -34 144 -131 177 -137 130 -25 194 -34 216 -29 14 2 66 -2 116 -11 50 -9 115 -18 144 -21 30 -4 63 -10 74 -14 11 -4 56 -17 100 -28 44 -11 106 -28 138 -37 70 -19 67 -19 67 -2 0 7 -37 32 -82 53 -46 22 -139 78 -208 125 -441 298 -456 307 -537 312 -32 2 -71 2 -88 -1z"/>
 <path d="M857 7762 c-12 -19 77 -92 112 -92 26 0 28 31 4 52 -18 16 -88 48 -104 48 -4 0 -10 -3 -12 -8z"/>
 <path d="M2135 7411 c-22 -5 -62 -11 -90 -15 -186 -27 -371 -131 -575 -323 -132 -124 -195 -226 -293 -473 -62 -158 -141 -409 -156 -497 -13 -75 -26 -150 -47 -263 -21 -112 -29 -242 -29 -470 0 -252 9 -396 36 -565 12 -71 22 -146 23 -165 1 -31 -2 -35 -24 -35 -19 0 -27 8 -36 35 -14 44 -59 230 -79 330 -42 210 -52 650 -19 825 3 17 7 57 9 90 1 33 12 98 24 145 22 93 27 145 11 135 -5 -3 -10 -17 -10 -29 0 -13 -7 -41 -16 -62 -44 -105 -64 -226 -68 -419 -4 -149 -8 -191 -20 -203 -22 -22 -44 -7 -51 35 -14 92 -21 117 -32 121 -10 3 -13 -40 -13 -195 0 -270 28 -531 85 -783 13 -58 27 -127 30 -155 12 -88 87 -317 142 -434 96 -201 104 -231 64 -231 -18 0 -81 70 -81 89 0 28 -25 61 -46 61 -32 0 -38 -31 -30 -136 12 -166 36 -222 103 -251 30 -12 38 -12 77 5 48 22 104 85 133 152 30 69 96 145 145 169 88 42 169 19 257 -74 77 -81 66 -117 -25 -79 -88 37 -192 -9 -342 -150 -197 -184 -322 -241 -532 -241 -217 1 -326 61 -412 227 -69 132 -103 334 -95 568 4 149 5 151 65 298 14 34 22 65 18 69 -23 23 -119 -172 -143 -290 -11 -54 -18 -148 -20 -272 -4 -181 -3 -193 21 -260 13 -38 29 -92 36 -120 12 -51 70 -167 120 -240 86 -126 293 -276 439 -320 137 -41 351 -32 466 20 62 27 201 83 240 95 22 7 67 27 100 46 50 27 197 74 233 74 6 0 28 -15 50 -33 67 -56 86 -60 177 -38 131 33 197 96 165 156 -19 36 -53 69 -135 130 -99 74 -147 127 -143 156 5 36 43 37 87 1 35 -28 74 -52 85 -52 14 0 3 22 -47 96 -59 86 -167 299 -167 327 0 10 8 21 17 24 23 9 67 -47 84 -104 18 -66 91 -170 164 -232 35 -30 125 -93 202 -139 147 -90 178 -114 254 -205 35 -41 49 -67 49 -88 0 -35 -29 -96 -59 -123 -17 -15 -18 -22 -9 -33 42 -52 153 -61 241 -20 74 33 105 58 140 109 30 46 34 85 13 127 -30 58 -78 86 -217 131 -196 62 -275 104 -397 209 -86 74 -161 172 -208 271 -20 41 -49 96 -65 121 -16 25 -46 92 -68 150 -21 57 -49 124 -61 148 -17 32 -21 48 -13 60 25 40 74 16 93 -48 6 -20 17 -52 25 -71 7 -19 33 -87 56 -150 48 -131 91 -208 146 -264 57 -59 173 -151 218 -174 22 -11 51 -32 64 -46 13 -14 58 -40 100 -57 120 -50 205 -94 263 -137 57 -42 147 -136 149 -156 4 -54 -2 -117 -15 -148 -20 -46 -20 -69 -2 -93 14 -19 15 -19 68 3 29 12 59 22 66 22 22 0 85 37 130 75 39 34 132 146 132 159 0 4 14 25 30 48 17 22 30 50 30 60 0 18 -5 19 -48 13 -40 -5 -51 -3 -66 14 -26 28 -14 48 36 62 24 7 48 16 53 19 6 4 42 19 82 34 91 34 164 95 147 123 -10 15 -23 18 -97 15 -90 -3 -161 -21 -355 -91 -79 -28 -136 -42 -190 -46 -42 -4 -83 -8 -90 -10 -21 -7 -113 14 -161 38 -50 24 -188 117 -261 175 -123 99 -234 258 -289 416 -18 49 -43 110 -56 135 -13 25 -31 63 -39 84 -9 21 -41 76 -72 122 -59 88 -64 115 -20 115 17 0 33 -11 49 -32 29 -38 128 -244 163 -337 34 -89 124 -258 179 -336 79 -110 183 -192 300 -236 17 -6 83 -13 149 -15 125 -3 254 16 367 55 61 21 111 28 244 36 104 7 211 27 252 49 84 43 132 137 113 222 -20 89 -113 201 -234 281 -83 55 -230 54 -431 -2 -49 -14 -133 -37 -185 -52 -78 -22 -116 -27 -210 -28 -73 0 -130 5 -157 14 -51 17 -73 5 -73 -40 0 -49 90 -178 166 -237 46 -37 47 -37 143 -36 80 0 117 6 221 36 166 49 217 54 308 30 40 -10 85 -17 101 -14 16 2 53 24 81 48 77 66 120 53 68 -20 -68 -98 -195 -144 -277 -102 -55 29 -106 21 -205 -33 -130 -69 -179 -83 -294 -83 -125 1 -169 19 -256 106 -80 80 -127 174 -186 371 -22 77 -50 165 -61 195 -59 160 -214 404 -324 510 -59 57 -70 77 -54 96 22 26 55 16 104 -33 39 -41 86 -107 239 -340 23 -36 57 -49 86 -33 10 5 31 10 46 10 24 0 26 -3 20 -27 -4 -16 -9 -41 -11 -57 -2 -15 -8 -33 -14 -39 -16 -16 -14 -60 5 -107 16 -39 45 -66 58 -53 11 11 7 59 -10 104 -45 129 58 330 207 400 47 21 54 22 111 10 108 -22 156 -57 210 -149 45 -76 50 -93 55 -180 7 -93 18 -118 52 -107 28 8 44 49 35 89 -8 39 -62 138 -104 190 -33 43 -36 79 -7 84 25 5 61 -30 112 -108 40 -61 75 -143 75 -175 0 -8 9 -15 20 -15 32 0 25 26 -44 160 -71 138 -185 397 -222 505 -54 154 -194 682 -194 730 0 46 21 95 40 95 27 0 36 -23 44 -105 19 -208 84 -467 158 -635 14 -30 37 -89 52 -131 36 -101 159 -352 195 -398 15 -20 43 -62 61 -94 46 -82 189 -224 279 -277 118 -70 279 -119 304 -94 4 4 -22 33 -58 66 -115 106 -214 246 -272 388 -27 65 -38 106 -58 208 -9 50 -17 61 -58 85 -50 30 -153 135 -192 197 -53 83 -94 178 -161 371 -37 106 -75 206 -85 224 -26 43 -66 166 -62 187 5 22 30 30 54 18 28 -16 55 -75 98 -219 73 -241 145 -401 264 -583 58 -88 78 -111 118 -132 66 -37 95 -74 103 -135 39 -295 337 -604 632 -654 106 -18 117 2 53 102 -22 35 -43 77 -46 95 -17 91 -74 149 -223 227 -110 57 -160 100 -254 218 -70 87 -96 130 -96 159 0 50 72 12 112 -60 13 -23 66 -77 123 -124 80 -67 129 -99 241 -154 199 -98 303 -109 439 -45 53 25 64 27 137 21 94 -8 145 4 186 42 29 27 51 97 35 112 -4 4 -32 10 -62 13 l-54 4 -63 -58 c-35 -33 -71 -59 -79 -59 -23 0 -62 45 -68 79 -4 16 -4 62 -1 103 l6 74 -99 101 c-119 120 -160 192 -257 450 -59 158 -89 247 -166 503 -111 367 -233 601 -401 772 -129 132 -172 137 -363 42 -148 -73 -336 -65 -413 18 -51 55 -52 116 -1 173 44 51 114 68 263 63 132 -4 144 -8 348 -108 54 -27 119 -56 145 -64 86 -29 261 -227 366 -415 96 -171 136 -291 236 -706 78 -325 128 -461 218 -601 41 -63 100 -111 162 -133 58 -20 173 -29 453 -37 279 -7 322 -3 414 38 49 21 74 55 48 64 -8 3 -21 4 -28 1 -8 -3 -44 1 -81 9 -65 14 -69 13 -119 -10 -92 -43 -208 -40 -329 8 l-66 27 -62 -21 c-95 -32 -142 -19 -247 68 -66 55 -126 130 -175 217 -45 81 -81 172 -73 185 14 23 37 6 85 -65 129 -191 218 -275 337 -316 77 -26 98 -25 125 11 12 16 30 32 39 35 11 4 64 -18 134 -54 150 -79 176 -79 302 0 19 11 28 10 70 -10 54 -25 82 -20 120 20 22 25 59 136 49 146 -3 4 -17 1 -30 -6 -33 -18 -65 -5 -81 32 -7 18 -20 112 -29 211 -19 202 -37 300 -73 401 -13 39 -27 79 -30 90 -16 64 -41 134 -84 241 -83 208 -89 234 -55 234 24 0 64 -40 71 -70 3 -16 15 -40 26 -54 10 -13 26 -53 35 -88 18 -73 114 -317 156 -398 15 -30 28 -66 28 -80 0 -15 7 -35 15 -46 13 -16 16 -17 25 -4 15 21 10 50 -49 270 -150 558 -222 717 -361 789 -28 15 -50 18 -110 14 -54 -4 -113 2 -210 20 -154 28 -262 28 -405 2 -109 -21 -178 -15 -242 18 -60 32 -385 137 -422 137 -24 0 4 -29 49 -50 69 -32 209 -175 284 -290 35 -52 93 -153 131 -225 37 -71 118 -213 178 -315 170 -284 337 -628 337 -693 0 -29 -31 -67 -54 -67 -37 0 -111 95 -165 212 -69 150 -157 352 -203 468 -130 324 -295 620 -396 710 -173 155 -431 273 -712 325 -115 22 -316 45 -395 46 -74 0 -124 8 -355 58 -152 33 -321 47 -395 32z m2497 -648 c108 -154 192 -315 253 -493 35 -99 43 -140 27 -140 -18 0 -44 42 -155 255 -63 121 -124 238 -137 260 -97 170 -105 195 -67 195 18 0 37 -19 79 -77z m417 -17 c51 -27 124 -161 170 -316 11 -36 36 -141 55 -235 19 -93 37 -177 40 -185 3 -8 1 -22 -4 -30 -15 -24 -39 7 -56 75 -27 102 -100 277 -199 478 -81 164 -95 199 -85 212 16 19 43 19 79 1z m-961 -1168 c17 -17 15 -58 -3 -64 -21 -8 -45 14 -45 41 0 35 24 47 48 23z m-1523 -109 c54 -28 142 -105 160 -139 11 -22 12 -31 2 -44 -11 -14 -22 -11 -111 33 l-99 50 -49 -19 c-67 -25 -80 -38 -129 -133 -37 -71 -43 -91 -44 -152 -2 -62 -5 -70 -23 -73 -29 -4 -34 21 -33 152 1 165 13 224 58 284 45 59 78 74 158 67 41 -3 87 -14 110 -26z m1581 -47 c21 -14 32 -47 23 -69 -11 -31 -44 -29 -65 2 -15 23 -15 27 0 50 17 26 24 29 42 17z m-122 -108 c3 -9 6 -24 6 -35 0 -10 14 -28 30 -41 34 -24 37 -39 15 -58 -24 -20 -65 3 -65 36 0 14 -11 39 -25 55 -13 16 -22 36 -19 44 8 20 50 19 58 -1z m191 -54 c0 -18 -6 -26 -23 -28 -27 -4 -40 22 -22 44 19 22 45 13 45 -16z m-291 -76 c24 -23 3 -56 -32 -52 -30 3 -41 30 -22 53 16 19 35 19 54 -1z m226 -59 c18 -22 8 -50 -19 -50 -28 0 -47 25 -38 49 8 20 40 21 57 1z m-156 -28 c21 -15 18 -45 -6 -60 -23 -15 -48 8 -48 44 0 32 23 39 54 16z m241 -56 c13 -42 -32 -70 -63 -39 -16 16 -15 23 4 42 21 22 51 20 59 -3z m-1350 -5 c53 -16 105 -60 105 -88 0 -26 -26 -33 -53 -16 -43 28 -125 49 -197 49 -61 0 -71 3 -68 17 4 19 86 51 134 52 17 0 52 -6 79 -14z m1183 -44 c3 -16 -2 -22 -17 -22 -24 0 -35 15 -27 36 9 23 40 13 44 -14z m236 -8 c10 -4 16 -18 16 -36 0 -26 -3 -29 -27 -26 -21 2 -29 9 -31 27 -2 13 2 28 10 32 16 11 13 10 32 3z m-143 -45 c15 -28 -9 -54 -40 -44 -20 6 -29 43 -14 58 13 14 43 6 54 -14z m89 -64 c0 -25 -26 -46 -47 -38 -14 5 -18 45 -6 56 3 4 17 7 30 7 18 0 23 -5 23 -25z m98 -46 c4 -19 -19 -31 -38 -19 -18 11 -4 42 17 38 10 -2 19 -10 21 -19z m-3048 -575 c59 -32 132 -100 173 -161 55 -80 -3 -87 -95 -13 -76 61 -129 90 -167 90 -27 0 -96 -42 -134 -81 -20 -21 -42 -25 -52 -9 -10 16 17 120 40 154 11 17 32 37 45 44 39 20 130 9 190 -24z"/>
 <path d="M5375 7154 c-11 -3 -30 -7 -42 -10 -25 -5 -31 -28 -10 -41 7 -4 26 -26 42 -48 16 -22 46 -59 67 -82 34 -38 67 -99 111 -203 61 -143 154 -467 177 -610 6 -41 16 -97 22 -125 14 -65 18 -428 7 -525 -26 -213 -71 -339 -151 -418 -23 -23 -45 -42 -50 -42 -10 0 -24 -29 -33 -67 -5 -26 -3 -33 8 -33 18 0 57 46 57 67 0 8 22 40 49 70 63 70 103 147 131 248 11 44 32 103 45 130 17 38 26 83 36 186 15 167 3 316 -36 429 -32 93 -55 176 -99 355 -46 187 -47 197 -52 373 -4 177 -13 219 -57 269 -48 55 -155 92 -222 77z"/>
 <path d="M580 7142 c0 -15 53 -42 80 -42 20 0 28 24 12 34 -20 12 -92 18 -92 8z"/>
 <path d="M3118 7103 c-25 -6 -22 -30 5 -47 31 -19 170 -30 213 -16 49 16 41 42 -16 57 -44 11 -168 15 -202 6z"/>
 <path d="M330 6485 c0 -9 8 -18 18 -21 9 -3 29 -12 44 -20 33 -18 69 -18 94 0 32 24 0 43 -83 50 -61 5 -73 3 -73 -9z"/>
 <path d="M354 6328 c-7 -11 -12 -78 -16 -220 -2 -87 16 -118 71 -118 28 0 54 -10 92 -35 29 -20 58 -34 64 -31 12 4 39 159 50 288 4 36 12 74 20 84 13 18 10 44 -5 44 -4 0 -10 -10 -13 -21 -4 -17 -11 -20 -28 -16 -12 3 -35 -1 -52 -9 -38 -20 -87 -11 -126 21 -32 28 -46 31 -57 13z"/>
 <path d="M315 5817 c-43 -14 -49 -24 -23 -40 26 -17 93 3 93 28 0 24 -18 27 -70 12z"/>
 <path d="M5633 5734 c-3 -8 -1 -34 5 -57 l10 -42 1 58 c1 57 -4 71 -16 41z"/>
 <path d="M515 5686 c-12 -8 -48 -22 -80 -31 -75 -21 -88 -36 -80 -95 10 -76 37 -170 54 -192 22 -26 111 -38 128 -16 18 21 28 309 11 331 -11 15 -15 16 -33 3z"/>
 <path d="M300 5310 c0 -11 -5 -20 -11 -20 -6 0 -8 -7 -5 -16 4 -9 1 -23 -5 -30 -18 -21 -2 -17 21 6 21 21 28 80 10 80 -5 0 -10 -9 -10 -20z"/>
 <path d="M209 5213 c-15 -3 -35 -43 -23 -43 11 0 54 33 54 41 0 9 -4 10 -31 2z"/>
 <path d="M391 5180 c-14 -3 -26 -11 -29 -18 -4 -14 26 -16 47 -3 21 13 9 28 -18 21z"/>
 <path d="M50 5108 c-11 -12 -18 -23 -16 -26 6 -6 56 29 56 39 0 16 -19 10 -40 -13z"/>
 <path d="M290 5081 c0 -5 7 -12 15 -15 9 -3 21 -19 26 -36 6 -16 14 -30 19 -30 4 0 10 -15 13 -34 3 -18 20 -55 37 -82 l32 -49 -6 38 c-5 40 -66 169 -93 200 -17 18 -43 23 -43 8z"/>
 <path d="M491 5066 c-9 -11 -4 -39 20 -122 36 -127 73 -204 95 -204 11 0 14 5 9 18 -3 9 -11 55 -16 102 -10 93 -27 175 -41 203 -10 20 -51 23 -67 3z"/>
 <path d="M5022 5018 c5 -15 57 -18 61 -3 1 6 -13 11 -32 13 -24 3 -32 0 -29 -10z"/>
 <path d="M5112 4921 c-7 -4 -23 -40 -37 -81 -28 -83 -24 -95 33 -106 43 -8 164 19 210 46 78 48 60 112 -38 137 -38 10 -62 11 -82 4 -17 -6 -38 -7 -52 -1 -12 4 -28 5 -34 1z"/>
 <path d="M2684 4831 c-37 -22 -102 -109 -120 -159 -18 -50 -17 -120 1 -173 37 -104 60 -135 113 -145 42 -9 44 18 3 52 -17 14 -39 50 -51 82 -18 49 -21 69 -15 142 11 133 41 170 140 170 61 0 115 -27 154 -76 29 -37 27 -52 -15 -95 l-36 -37 37 -41 c38 -42 43 -62 30 -119 -7 -32 -6 -34 16 -30 15 2 32 17 47 43 20 35 23 50 19 121 -7 130 -57 216 -152 260 -61 29 -128 31 -171 5z"/>
 <path d="M440 4831 c0 -7 -4 -9 -10 -6 -15 9 -12 -1 5 -18 8 -8 16 -31 18 -52 2 -20 10 -40 17 -45 8 -5 9 -13 4 -21 -14 -22 -13 -38 1 -33 23 9 23 40 0 108 -22 66 -35 91 -35 67z"/>
 <path d="M4714 4652 c-17 -12 -54 -64 -54 -76 0 -7 6 -21 14 -31 14 -19 14 -19 36 0 23 21 50 66 50 84 0 14 -34 31 -46 23z"/>
 <path d="M147 4600 c-26 -25 -47 -52 -47 -61 0 -9 -7 -22 -15 -29 -8 -7 -15 -21 -15 -32 0 -11 -7 -26 -15 -34 -8 -9 -15 -24 -15 -34 0 -10 -9 -20 -20 -23 -27 -7 -27 -60 0 -89 22 -24 19 -30 49 83 21 78 75 183 113 218 11 11 18 25 16 32 -3 9 -21 -3 -51 -31z"/>
 <path d="M4920 4620 c-22 -22 -17 -43 15 -70 21 -17 65 2 65 28 0 17 -38 62 -53 62 -4 0 -16 -9 -27 -20z"/>
 <path d="M4971 4272 c-49 -46 -53 -80 -16 -124 52 -62 13 -86 -58 -38 -69 46 -187 98 -264 116 -76 18 -196 20 -237 4 -15 -5 -49 -10 -76 -10 -27 0 -86 -9 -132 -21 -123 -31 -134 -32 -184 -20 -35 9 -51 9 -72 -1 -27 -13 -27 -14 -23 -99 3 -77 0 -92 -24 -144 -15 -31 -56 -87 -90 -124 -54 -57 -64 -74 -74 -123 -16 -73 -61 -141 -109 -163 -20 -9 -48 -22 -61 -28 -28 -14 -81 -83 -81 -105 0 -9 -18 -53 -40 -99 -23 -46 -38 -88 -35 -93 3 -6 19 -10 35 -10 21 0 45 15 88 55 89 82 121 73 131 -37 2 -17 41 -7 70 18 34 29 111 134 142 197 12 23 34 58 49 77 108 139 190 297 190 366 0 11 6 29 14 40 8 11 24 51 36 88 21 62 24 67 49 64 37 -4 39 -37 6 -100 -29 -55 -110 -277 -126 -345 -6 -23 -17 -47 -25 -54 -8 -6 -14 -17 -14 -23 0 -7 -32 -64 -71 -127 -120 -192 -123 -210 -37 -184 26 7 100 17 165 20 101 5 127 10 180 35 65 30 153 103 153 126 0 21 -26 17 -130 -16 -51 -17 -99 -29 -107 -26 -42 17 33 82 128 111 30 9 86 30 124 46 39 16 77 29 86 29 18 0 146 83 197 129 54 47 35 75 -71 100 -39 9 -63 8 -131 -6 -74 -15 -87 -15 -122 -2 -26 10 -42 24 -49 42 -12 36 3 47 71 47 53 0 69 10 76 45 5 28 57 31 106 6 45 -23 189 -50 230 -44 130 21 207 75 236 163 27 84 28 159 3 220 -30 71 -51 75 -106 22z m-924 -282 c-3 -22 -32 -95 -65 -162 -33 -68 -69 -144 -80 -170 -12 -26 -32 -62 -45 -80 -13 -18 -46 -75 -72 -126 -69 -131 -105 -164 -113 -99 -2 18 10 46 42 92 25 36 46 67 46 69 0 3 18 32 41 66 58 88 139 253 139 285 0 33 79 165 99 165 10 0 12 -10 8 -40z m383 -288 c19 -15 21 -22 11 -39 -6 -12 -25 -27 -43 -35 -18 -7 -57 -26 -88 -41 -147 -76 -177 -89 -206 -94 -72 -12 -46 50 48 115 145 99 170 112 214 112 25 0 51 -7 64 -18z"/>
 <path d="M0 3726 c0 -83 2 -96 17 -96 14 0 14 -3 -3 -22 -10 -12 -13 -18 -7 -14 8 4 13 1 13 -8 0 -9 5 -16 10 -16 6 0 10 -9 10 -19 0 -11 7 -26 15 -35 8 -8 15 -21 15 -30 0 -8 5 -18 11 -21 6 -4 14 -17 19 -29 9 -20 9 -20 9 -1 1 12 -3 25 -7 30 -23 26 -66 183 -77 283 -11 97 -25 84 -25 -22z"/>
 <path d="M2030 3550 c0 -5 21 -23 47 -41 25 -18 55 -41 66 -52 44 -44 50 -159 12 -230 l-24 -47 22 -25 c29 -33 149 -52 213 -34 89 24 154 112 121 163 -9 13 -66 48 -129 79 -63 30 -150 82 -195 115 -105 78 -133 93 -133 72z"/>
 <path d="M4982 3417 c-6 -7 -13 -24 -17 -39 -17 -67 -154 -178 -220 -178 -29 0 -54 6 -185 44 -72 21 -115 13 -188 -34 -70 -46 -153 -75 -237 -85 -46 -6 -70 -15 -102 -40 -23 -17 -65 -43 -93 -56 -27 -13 -50 -29 -50 -35 0 -16 39 -49 85 -72 43 -21 232 -52 320 -52 28 0 77 7 108 15 32 8 68 15 79 15 38 0 146 39 254 91 69 33 171 121 204 175 21 33 57 153 67 220 5 34 -9 51 -25 31z"/>
 <path d="M120 3389 c0 -17 20 -49 31 -49 5 0 3 14 -6 30 -16 31 -25 38 -25 19z"/>
 <path d="M170 3292 c0 -13 41 -54 48 -47 4 3 2 9 -4 13 -6 4 -13 15 -17 25 -6 17 -27 24 -27 9z"/>
 <path d="M226 3201 c-3 -5 1 -11 9 -15 8 -3 15 -13 15 -23 0 -28 93 -104 170 -140 25 -12 59 -35 75 -53 53 -57 92 -70 203 -70 76 0 102 -4 112 -15 17 -20 167 -21 194 0 27 21 11 33 -37 28 -49 -6 -332 32 -388 52 -21 8 -62 30 -91 49 -29 20 -57 36 -61 36 -15 0 -136 100 -158 131 -21 30 -34 36 -43 20z"/>
 <path d="M1600 3112 c0 -15 36 -42 56 -42 10 0 28 -7 38 -15 28 -21 89 -19 141 5 24 11 46 24 49 28 3 4 -35 6 -83 4 -67 -3 -95 -1 -119 12 -33 17 -82 22 -82 8z"/>
 <path d="M2060 3055 c7 -8 20 -14 29 -14 13 1 13 2 -1 6 -10 2 -18 9 -18 14 0 5 -5 9 -11 9 -8 0 -8 -5 1 -15z"/>
 <path d="M2162 3011 c2 -12 18 -17 56 -19 45 -3 52 0 52 15 0 15 -9 18 -55 19 -45 0 -55 -3 -53 -15z"/>
 <path d="M1303 3003 c-18 -9 -33 -23 -33 -30 0 -21 14 -15 45 17 33 34 32 35 -12 13z"/>
 <path d="M2427 3008 c4 -7 8 -20 10 -28 6 -45 113 -68 146 -32 10 10 17 20 17 23 0 2 -23 5 -51 6 -35 1 -61 8 -80 22 -31 23 -55 28 -42 9z"/>
 <path d="M2693 2996 c-35 -7 -66 -15 -69 -18 -12 -12 106 -20 225 -15 67 3 128 4 135 1 8 -3 11 -23 8 -64 -3 -41 -1 -60 7 -60 6 0 16 -10 21 -22 6 -17 9 2 9 64 1 59 -3 89 -11 95 -12 7 -86 17 -208 27 -30 3 -83 -1 -117 -8z"/>
 <path d="M1105 2932 c-6 -4 -11 -13 -13 -21 -3 -12 -1 -12 15 -1 10 8 19 15 21 16 2 1 -1 4 -5 7 -5 3 -13 3 -18 -1z"/>
 <path d="M2494 2638 c-88 -92 -230 -244 -222 -238 4 3 61 59 128 124 140 139 126 134 369 135 79 1 141 4 137 8 -4 5 -68 8 -142 9 -89 0 -138 4 -146 12 -28 28 -63 13 -124 -50z"/>
 </g>
<g id="layer104" fill="#fbfbfb" stroke="none">
 <path d="M3272 8713 c-42 -60 -52 -89 -38 -108 17 -24 46 -13 46 17 1 13 7 34 15 48 16 28 20 70 6 70 -5 0 -18 -12 -29 -27z"/>
 <path d="M1975 8626 c2 -48 9 -95 15 -106 20 -37 90 -39 90 -3 -1 26 -83 187 -98 191 -10 3 -11 -15 -7 -82z"/>
 <path d="M2673 8678 c-22 -28 -22 -37 -2 -62 30 -38 40 -32 37 21 -3 47 -17 64 -35 41z"/>
 <path d="M2915 8681 c-38 -16 -55 -47 -63 -114 -10 -80 -32 -109 -105 -133 -69 -23 -121 -14 -164 28 -55 52 -65 79 -51 132 18 69 4 80 -97 73 -44 -3 -93 -10 -110 -16 -16 -5 -42 -12 -57 -15 -44 -10 -50 -35 -31 -114 9 -38 13 -80 10 -94 -16 -61 -86 -113 -176 -130 -36 -7 -53 -4 -88 13 -65 31 -93 70 -93 130 0 36 -4 51 -16 56 -21 8 -174 -50 -247 -94 -82 -49 -87 -64 -43 -120 61 -78 60 -151 0 -222 -38 -44 -118 -91 -155 -91 -29 0 -83 34 -103 65 -9 13 -16 40 -16 58 0 66 -21 65 -101 -8 -40 -36 -76 -65 -80 -65 -16 0 -110 -123 -107 -139 2 -9 26 -31 53 -48 28 -18 55 -40 62 -49 15 -20 9 -154 -8 -187 -28 -53 -86 -97 -131 -97 -33 0 -87 36 -106 71 -34 62 -52 80 -71 70 -27 -15 -80 -72 -87 -95 -4 -11 -26 -52 -50 -90 -86 -137 -82 -166 22 -166 76 0 102 -19 129 -94 23 -62 21 -125 -5 -176 -25 -50 -52 -67 -115 -75 -42 -6 -55 -3 -84 17 -19 12 -42 38 -52 57 -26 50 -35 56 -54 41 -26 -22 -51 -79 -69 -157 -9 -39 -20 -82 -25 -95 -5 -12 -12 -46 -15 -74 -9 -63 8 -87 55 -77 42 8 114 -22 143 -60 13 -18 30 -51 37 -74 11 -37 10 -48 -6 -83 -10 -22 -15 -43 -12 -47 16 -15 46 34 72 115 74 236 232 580 345 752 229 348 508 632 819 834 70 46 222 126 239 126 4 0 47 16 95 36 132 53 239 82 372 99 66 9 137 22 158 30 27 11 80 15 191 15 200 0 210 4 161 62 -27 32 -32 70 -15 127 12 41 1 64 -37 79 -42 16 -96 22 -118 13z"/>
 <path d="M3413 8555 c-12 -9 -28 -34 -35 -56 -7 -25 -24 -50 -45 -66 -18 -14 -33 -30 -33 -35 0 -5 21 -19 48 -30 54 -25 182 -31 203 -11 10 10 14 70 10 160 -1 16 -46 39 -91 48 -24 4 -42 1 -57 -10z"/>
 <path d="M3738 8465 c-9 -20 -9 -28 1 -38 10 -9 16 -7 32 12 25 30 24 51 -1 51 -12 0 -25 -10 -32 -25z"/>
 <path d="M1340 8312 c0 -28 32 -108 51 -128 21 -23 58 -32 72 -18 6 7 -41 84 -52 84 -3 0 -17 16 -30 35 -22 33 -41 45 -41 27z"/>
 <path d="M2962 8303 c-44 -3 -65 -8 -69 -19 -8 -21 37 -101 67 -121 28 -19 87 -72 164 -149 58 -58 98 -83 176 -108 30 -10 73 -27 96 -37 23 -11 51 -19 63 -19 19 0 72 -25 145 -67 12 -7 30 -13 40 -13 24 0 81 -17 123 -38 29 -13 37 -13 70 -1 32 13 38 20 41 49 3 28 -10 53 -85 164 -165 244 -264 318 -449 337 -55 5 -130 14 -169 19 -70 9 -95 9 -213 3z"/>
 <path d="M1965 7973 c-16 -2 -41 -15 -55 -27 -14 -13 -33 -26 -42 -29 -49 -17 -58 -86 -20 -154 18 -34 144 -131 177 -137 130 -25 194 -34 216 -29 14 2 66 -2 116 -11 50 -9 115 -18 144 -21 30 -4 63 -10 74 -14 11 -4 56 -17 100 -28 44 -11 106 -28 138 -37 70 -19 67 -19 67 -2 0 7 -37 32 -82 53 -46 22 -139 78 -208 125 -441 298 -456 307 -537 312 -32 2 -71 2 -88 -1z"/>
 <path d="M857 7762 c-12 -19 77 -92 112 -92 26 0 28 31 4 52 -18 16 -88 48 -104 48 -4 0 -10 -3 -12 -8z"/>
 <path d="M2135 7411 c-22 -5 -62 -11 -90 -15 -186 -27 -371 -131 -575 -323 -132 -124 -195 -226 -293 -473 -62 -158 -141 -409 -156 -497 -13 -75 -26 -150 -47 -263 -21 -112 -29 -242 -29 -470 0 -252 9 -396 36 -565 12 -71 22 -146 23 -165 1 -31 -2 -35 -24 -35 -19 0 -27 8 -36 35 -14 44 -59 230 -79 330 -42 210 -52 650 -19 825 3 17 7 57 9 90 1 33 12 98 24 145 22 93 27 145 11 135 -5 -3 -10 -17 -10 -29 0 -13 -7 -41 -16 -62 -44 -105 -64 -226 -68 -419 -4 -149 -8 -191 -20 -203 -22 -22 -44 -7 -51 35 -14 92 -21 117 -32 121 -10 3 -13 -40 -13 -195 0 -270 28 -531 85 -783 13 -58 27 -127 30 -155 12 -88 87 -317 142 -434 96 -201 104 -231 64 -231 -18 0 -81 70 -81 89 0 28 -25 61 -46 61 -32 0 -38 -31 -30 -136 12 -166 36 -222 103 -251 30 -12 38 -12 77 5 48 22 104 85 133 152 30 69 96 145 145 169 88 42 169 19 257 -74 77 -81 66 -117 -25 -79 -88 37 -192 -9 -342 -150 -197 -184 -322 -241 -532 -241 -217 1 -326 61 -412 227 -69 132 -103 334 -95 568 4 149 5 151 65 298 14 34 22 65 18 69 -23 23 -119 -172 -143 -290 -11 -54 -18 -148 -20 -272 -4 -181 -3 -193 21 -260 13 -38 29 -92 36 -120 12 -51 70 -167 120 -240 86 -126 293 -276 439 -320 137 -41 351 -32 466 20 62 27 201 83 240 95 22 7 67 27 100 46 50 27 197 74 233 74 6 0 28 -15 50 -33 67 -56 86 -60 177 -38 131 33 197 96 165 156 -19 36 -53 69 -135 130 -99 74 -147 127 -143 156 5 36 43 37 87 1 35 -28 74 -52 85 -52 14 0 3 22 -47 96 -59 86 -167 299 -167 327 0 10 8 21 17 24 23 9 67 -47 84 -104 18 -66 91 -170 164 -232 35 -30 125 -93 202 -139 147 -90 178 -114 254 -205 35 -41 49 -67 49 -88 0 -35 -29 -96 -59 -123 -17 -15 -18 -22 -9 -33 42 -52 153 -61 241 -20 74 33 105 58 140 109 30 46 34 85 13 127 -30 58 -78 86 -217 131 -196 62 -275 104 -397 209 -86 74 -161 172 -208 271 -20 41 -49 96 -65 121 -16 25 -46 92 -68 150 -21 57 -49 124 -61 148 -17 32 -21 48 -13 60 25 40 74 16 93 -48 6 -20 17 -52 25 -71 7 -19 33 -87 56 -150 48 -131 91 -208 146 -264 57 -59 173 -151 218 -174 22 -11 51 -32 64 -46 13 -14 58 -40 100 -57 120 -50 205 -94 263 -137 57 -42 147 -136 149 -156 4 -54 -2 -117 -15 -148 -20 -46 -20 -69 -2 -93 14 -19 15 -19 68 3 29 12 59 22 66 22 22 0 85 37 130 75 39 34 132 146 132 159 0 4 14 25 30 48 17 22 30 50 30 60 0 18 -5 19 -48 13 -40 -5 -51 -3 -66 14 -26 28 -14 48 36 62 24 7 48 16 53 19 6 4 42 19 82 34 91 34 164 95 147 123 -10 15 -23 18 -97 15 -90 -3 -161 -21 -355 -91 -79 -28 -136 -42 -190 -46 -42 -4 -83 -8 -90 -10 -21 -7 -113 14 -161 38 -50 24 -188 117 -261 175 -123 99 -234 258 -289 416 -18 49 -43 110 -56 135 -13 25 -31 63 -39 84 -9 21 -41 76 -72 122 -59 88 -64 115 -20 115 17 0 33 -11 49 -32 29 -38 128 -244 163 -337 34 -89 124 -258 179 -336 79 -110 183 -192 300 -236 17 -6 83 -13 149 -15 125 -3 254 16 367 55 61 21 111 28 244 36 104 7 211 27 252 49 84 43 132 137 113 222 -20 89 -113 201 -234 281 -83 55 -230 54 -431 -2 -49 -14 -133 -37 -185 -52 -78 -22 -116 -27 -210 -28 -73 0 -130 5 -157 14 -51 17 -73 5 -73 -40 0 -49 90 -178 166 -237 46 -37 47 -37 143 -36 80 0 117 6 221 36 166 49 217 54 308 30 40 -10 85 -17 101 -14 16 2 53 24 81 48 77 66 120 53 68 -20 -68 -98 -195 -144 -277 -102 -55 29 -106 21 -205 -33 -130 -69 -179 -83 -294 -83 -125 1 -169 19 -256 106 -80 80 -127 174 -186 371 -22 77 -50 165 -61 195 -59 160 -214 404 -324 510 -59 57 -70 77 -54 96 22 26 55 16 104 -33 39 -41 86 -107 239 -340 23 -36 57 -49 86 -33 10 5 31 10 46 10 24 0 26 -3 20 -27 -4 -16 -9 -41 -11 -57 -2 -15 -8 -33 -14 -39 -16 -16 -14 -60 5 -107 16 -39 45 -66 58 -53 11 11 7 59 -10 104 -45 129 58 330 207 400 47 21 54 22 111 10 108 -22 156 -57 210 -149 45 -76 50 -93 55 -180 7 -93 18 -118 52 -107 28 8 44 49 35 89 -8 39 -62 138 -104 190 -33 43 -36 79 -7 84 25 5 61 -30 112 -108 40 -61 75 -143 75 -175 0 -8 9 -15 20 -15 32 0 25 26 -44 160 -71 138 -185 397 -222 505 -54 154 -194 682 -194 730 0 46 21 95 40 95 27 0 36 -23 44 -105 19 -208 84 -467 158 -635 14 -30 37 -89 52 -131 36 -101 159 -352 195 -398 15 -20 43 -62 61 -94 46 -82 189 -224 279 -277 118 -70 279 -119 304 -94 4 4 -22 33 -58 66 -115 106 -214 246 -272 388 -27 65 -38 106 -58 208 -9 50 -17 61 -58 85 -50 30 -153 135 -192 197 -53 83 -94 178 -161 371 -37 106 -75 206 -85 224 -26 43 -66 166 -62 187 5 22 30 30 54 18 28 -16 55 -75 98 -219 73 -241 145 -401 264 -583 58 -88 78 -111 118 -132 66 -37 95 -74 103 -135 39 -295 337 -604 632 -654 106 -18 117 2 53 102 -22 35 -43 77 -46 95 -17 91 -74 149 -223 227 -110 57 -160 100 -254 218 -70 87 -96 130 -96 159 0 50 72 12 112 -60 13 -23 66 -77 123 -124 80 -67 129 -99 241 -154 199 -98 303 -109 439 -45 53 25 64 27 137 21 94 -8 145 4 186 42 29 27 51 97 35 112 -4 4 -32 10 -62 13 l-54 4 -63 -58 c-35 -33 -71 -59 -79 -59 -23 0 -62 45 -68 79 -4 16 -4 62 -1 103 l6 74 -99 101 c-119 120 -160 192 -257 450 -59 158 -89 247 -166 503 -111 367 -233 601 -401 772 -129 132 -172 137 -363 42 -148 -73 -336 -65 -413 18 -51 55 -52 116 -1 173 44 51 114 68 263 63 132 -4 144 -8 348 -108 54 -27 119 -56 145 -64 86 -29 261 -227 366 -415 96 -171 136 -291 236 -706 78 -325 128 -461 218 -601 41 -63 100 -111 162 -133 58 -20 173 -29 453 -37 279 -7 322 -3 414 38 49 21 74 55 48 64 -8 3 -21 4 -28 1 -8 -3 -44 1 -81 9 -65 14 -69 13 -119 -10 -92 -43 -208 -40 -329 8 l-66 27 -62 -21 c-95 -32 -142 -19 -247 68 -66 55 -126 130 -175 217 -45 81 -81 172 -73 185 14 23 37 6 85 -65 129 -191 218 -275 337 -316 77 -26 98 -25 125 11 12 16 30 32 39 35 11 4 64 -18 134 -54 150 -79 176 -79 302 0 19 11 28 10 70 -10 54 -25 82 -20 120 20 22 25 59 136 49 146 -3 4 -17 1 -30 -6 -33 -18 -65 -5 -81 32 -7 18 -20 112 -29 211 -19 202 -37 300 -73 401 -13 39 -27 79 -30 90 -16 64 -41 134 -84 241 -83 208 -89 234 -55 234 24 0 64 -40 71 -70 3 -16 15 -40 26 -54 10 -13 26 -53 35 -88 18 -73 114 -317 156 -398 15 -30 28 -66 28 -80 0 -15 7 -35 15 -46 13 -16 16 -17 25 -4 15 21 10 50 -49 270 -150 558 -222 717 -361 789 -28 15 -50 18 -110 14 -54 -4 -113 2 -210 20 -154 28 -262 28 -405 2 -109 -21 -178 -15 -242 18 -60 32 -385 137 -422 137 -24 0 4 -29 49 -50 69 -32 209 -175 284 -290 35 -52 93 -153 131 -225 37 -71 118 -213 178 -315 170 -284 337 -628 337 -693 0 -29 -31 -67 -54 -67 -37 0 -111 95 -165 212 -69 150 -157 352 -203 468 -130 324 -295 620 -396 710 -173 155 -431 273 -712 325 -115 22 -316 45 -395 46 -74 0 -124 8 -355 58 -152 33 -321 47 -395 32z m2497 -648 c108 -154 192 -315 253 -493 35 -99 43 -140 27 -140 -18 0 -44 42 -155 255 -63 121 -124 238 -137 260 -97 170 -105 195 -67 195 18 0 37 -19 79 -77z m417 -17 c51 -27 124 -161 170 -316 11 -36 36 -141 55 -235 19 -93 37 -177 40 -185 3 -8 1 -22 -4 -30 -15 -24 -39 7 -56 75 -27 102 -100 277 -199 478 -81 164 -95 199 -85 212 16 19 43 19 79 1z m-961 -1168 c17 -17 15 -58 -3 -64 -21 -8 -45 14 -45 41 0 35 24 47 48 23z m-1523 -109 c54 -28 142 -105 160 -139 11 -22 12 -31 2 -44 -11 -14 -22 -11 -111 33 l-99 50 -49 -19 c-67 -25 -80 -38 -129 -133 -37 -71 -43 -91 -44 -152 -2 -62 -5 -70 -23 -73 -29 -4 -34 21 -33 152 1 165 13 224 58 284 45 59 78 74 158 67 41 -3 87 -14 110 -26z m1581 -47 c21 -14 32 -47 23 -69 -11 -31 -44 -29 -65 2 -15 23 -15 27 0 50 17 26 24 29 42 17z m-122 -108 c3 -9 6 -24 6 -35 0 -10 14 -28 30 -41 34 -24 37 -39 15 -58 -24 -20 -65 3 -65 36 0 14 -11 39 -25 55 -13 16 -22 36 -19 44 8 20 50 19 58 -1z m191 -54 c0 -18 -6 -26 -23 -28 -27 -4 -40 22 -22 44 19 22 45 13 45 -16z m-291 -76 c24 -23 3 -56 -32 -52 -30 3 -41 30 -22 53 16 19 35 19 54 -1z m226 -59 c18 -22 8 -50 -19 -50 -28 0 -47 25 -38 49 8 20 40 21 57 1z m-156 -28 c21 -15 18 -45 -6 -60 -23 -15 -48 8 -48 44 0 32 23 39 54 16z m241 -56 c13 -42 -32 -70 -63 -39 -16 16 -15 23 4 42 21 22 51 20 59 -3z m-1350 -5 c53 -16 105 -60 105 -88 0 -26 -26 -33 -53 -16 -43 28 -125 49 -197 49 -61 0 -71 3 -68 17 4 19 86 51 134 52 17 0 52 -6 79 -14z m1183 -44 c3 -16 -2 -22 -17 -22 -24 0 -35 15 -27 36 9 23 40 13 44 -14z m236 -8 c10 -4 16 -18 16 -36 0 -26 -3 -29 -27 -26 -21 2 -29 9 -31 27 -2 13 2 28 10 32 16 11 13 10 32 3z m-143 -45 c15 -28 -9 -54 -40 -44 -20 6 -29 43 -14 58 13 14 43 6 54 -14z m89 -64 c0 -25 -26 -46 -47 -38 -14 5 -18 45 -6 56 3 4 17 7 30 7 18 0 23 -5 23 -25z m98 -46 c4 -19 -19 -31 -38 -19 -18 11 -4 42 17 38 10 -2 19 -10 21 -19z m-3048 -575 c59 -32 132 -100 173 -161 55 -80 -3 -87 -95 -13 -76 61 -129 90 -167 90 -27 0 -96 -42 -134 -81 -20 -21 -42 -25 -52 -9 -10 16 17 120 40 154 11 17 32 37 45 44 39 20 130 9 190 -24z"/>
 <path d="M5375 7154 c-11 -3 -30 -7 -42 -10 -25 -5 -31 -28 -10 -41 7 -4 26 -26 42 -48 16 -22 46 -59 67 -82 34 -38 67 -99 111 -203 61 -143 154 -467 177 -610 6 -41 16 -97 22 -125 14 -65 18 -428 7 -525 -26 -213 -71 -339 -151 -418 -23 -23 -45 -42 -50 -42 -10 0 -24 -29 -33 -67 -5 -26 -3 -33 8 -33 18 0 57 46 57 67 0 8 22 40 49 70 63 70 103 147 131 248 11 44 32 103 45 130 17 38 26 83 36 186 15 167 3 316 -36 429 -32 93 -55 176 -99 355 -46 187 -47 197 -52 373 -4 177 -13 219 -57 269 -48 55 -155 92 -222 77z"/>
 <path d="M580 7142 c0 -15 53 -42 80 -42 20 0 28 24 12 34 -20 12 -92 18 -92 8z"/>
 <path d="M3118 7103 c-25 -6 -22 -30 5 -47 31 -19 170 -30 213 -16 49 16 41 42 -16 57 -44 11 -168 15 -202 6z"/>
 <path d="M330 6485 c0 -9 8 -18 18 -21 9 -3 29 -12 44 -20 33 -18 69 -18 94 0 32 24 0 43 -83 50 -61 5 -73 3 -73 -9z"/>
 <path d="M354 6328 c-7 -11 -12 -78 -16 -220 -2 -87 16 -118 71 -118 28 0 54 -10 92 -35 29 -20 58 -34 64 -31 12 4 39 159 50 288 4 36 12 74 20 84 13 18 10 44 -5 44 -4 0 -10 -10 -13 -21 -4 -17 -11 -20 -28 -16 -12 3 -35 -1 -52 -9 -38 -20 -87 -11 -126 21 -32 28 -46 31 -57 13z"/>
 <path d="M315 5817 c-43 -14 -49 -24 -23 -40 26 -17 93 3 93 28 0 24 -18 27 -70 12z"/>
 <path d="M5633 5734 c-3 -8 -1 -34 5 -57 l10 -42 1 58 c1 57 -4 71 -16 41z"/>
 <path d="M515 5686 c-12 -8 -48 -22 -80 -31 -75 -21 -88 -36 -80 -95 10 -76 37 -170 54 -192 22 -26 111 -38 128 -16 18 21 28 309 11 331 -11 15 -15 16 -33 3z"/>
 <path d="M391 5180 c-14 -3 -26 -11 -29 -18 -4 -14 26 -16 47 -3 21 13 9 28 -18 21z"/>
 <path d="M491 5066 c-9 -11 -4 -39 20 -122 36 -127 73 -204 95 -204 11 0 14 5 9 18 -3 9 -11 55 -16 102 -10 93 -27 175 -41 203 -10 20 -51 23 -67 3z"/>
 <path d="M5022 5018 c5 -15 57 -18 61 -3 1 6 -13 11 -32 13 -24 3 -32 0 -29 -10z"/>
 <path d="M5112 4921 c-7 -4 -23 -40 -37 -81 -28 -83 -24 -95 33 -106 43 -8 164 19 210 46 78 48 60 112 -38 137 -38 10 -62 11 -82 4 -17 -6 -38 -7 -52 -1 -12 4 -28 5 -34 1z"/>
 <path d="M2684 4831 c-37 -22 -102 -109 -120 -159 -18 -50 -17 -120 1 -173 37 -104 60 -135 113 -145 42 -9 44 18 3 52 -17 14 -39 50 -51 82 -18 49 -21 69 -15 142 11 133 41 170 140 170 61 0 115 -27 154 -76 29 -37 27 -52 -15 -95 l-36 -37 37 -41 c38 -42 43 -62 30 -119 -7 -32 -6 -34 16 -30 15 2 32 17 47 43 20 35 23 50 19 121 -7 130 -57 216 -152 260 -61 29 -128 31 -171 5z"/>
 <path d="M4714 4652 c-17 -12 -54 -64 -54 -76 0 -7 6 -21 14 -31 14 -19 14 -19 36 0 23 21 50 66 50 84 0 14 -34 31 -46 23z"/>
 <path d="M4920 4620 c-22 -22 -17 -43 15 -70 21 -17 65 2 65 28 0 17 -38 62 -53 62 -4 0 -16 -9 -27 -20z"/>
 <path d="M4971 4272 c-49 -46 -53 -80 -16 -124 52 -62 13 -86 -58 -38 -69 46 -187 98 -264 116 -76 18 -196 20 -237 4 -15 -5 -49 -10 -76 -10 -27 0 -86 -9 -132 -21 -123 -31 -134 -32 -184 -20 -35 9 -51 9 -72 -1 -27 -13 -27 -14 -23 -99 3 -77 0 -92 -24 -144 -15 -31 -56 -87 -90 -124 -54 -57 -64 -74 -74 -123 -16 -73 -61 -141 -109 -163 -20 -9 -48 -22 -61 -28 -28 -14 -81 -83 -81 -105 0 -9 -18 -53 -40 -99 -23 -46 -38 -88 -35 -93 3 -6 19 -10 35 -10 21 0 45 15 88 55 89 82 121 73 131 -37 2 -17 41 -7 70 18 34 29 111 134 142 197 12 23 34 58 49 77 108 139 190 297 190 366 0 11 6 29 14 40 8 11 24 51 36 88 21 62 24 67 49 64 37 -4 39 -37 6 -100 -29 -55 -110 -277 -126 -345 -6 -23 -17 -47 -25 -54 -8 -6 -14 -17 -14 -23 0 -7 -32 -64 -71 -127 -120 -192 -123 -210 -37 -184 26 7 100 17 165 20 101 5 127 10 180 35 65 30 153 103 153 126 0 21 -26 17 -130 -16 -51 -17 -99 -29 -107 -26 -42 17 33 82 128 111 30 9 86 30 124 46 39 16 77 29 86 29 18 0 146 83 197 129 54 47 35 75 -71 100 -39 9 -63 8 -131 -6 -74 -15 -87 -15 -122 -2 -26 10 -42 24 -49 42 -12 36 3 47 71 47 53 0 69 10 76 45 5 28 57 31 106 6 45 -23 189 -50 230 -44 130 21 207 75 236 163 27 84 28 159 3 220 -30 71 -51 75 -106 22z m-924 -282 c-3 -22 -32 -95 -65 -162 -33 -68 -69 -144 -80 -170 -12 -26 -32 -62 -45 -80 -13 -18 -46 -75 -72 -126 -69 -131 -105 -164 -113 -99 -2 18 10 46 42 92 25 36 46 67 46 69 0 3 18 32 41 66 58 88 139 253 139 285 0 33 79 165 99 165 10 0 12 -10 8 -40z m383 -288 c19 -15 21 -22 11 -39 -6 -12 -25 -27 -43 -35 -18 -7 -57 -26 -88 -41 -147 -76 -177 -89 -206 -94 -72 -12 -46 50 48 115 145 99 170 112 214 112 25 0 51 -7 64 -18z"/>
 <path d="M2030 3550 c0 -5 21 -23 47 -41 25 -18 55 -41 66 -52 44 -44 50 -159 12 -230 l-24 -47 22 -25 c29 -33 149 -52 213 -34 89 24 154 112 121 163 -9 13 -66 48 -129 79 -63 30 -150 82 -195 115 -105 78 -133 93 -133 72z"/>
 <path d="M4982 3417 c-6 -7 -13 -24 -17 -39 -17 -67 -154 -178 -220 -178 -29 0 -54 6 -185 44 -72 21 -115 13 -188 -34 -70 -46 -153 -75 -237 -85 -46 -6 -70 -15 -102 -40 -23 -17 -65 -43 -93 -56 -27 -13 -50 -29 -50 -35 0 -16 39 -49 85 -72 43 -21 232 -52 320 -52 28 0 77 7 108 15 32 8 68 15 79 15 38 0 146 39 254 91 69 33 171 121 204 175 21 33 57 153 67 220 5 34 -9 51 -25 31z"/>
 </g>

</svg>